<?xml version="1.0" encoding="UTF-8"?>
<svg xmlns="http://www.w3.org/2000/svg" xmlns:xlink="http://www.w3.org/1999/xlink" width="376.04pt" height="140.27pt" viewBox="0 0 376.04 140.27">
<defs>
<g>
<g id="glyph-0-0">
<path d="M 2.8125 0 L 2.8125 -5.609375 L 2.296875 -5.609375 C 2.265625 -5.398438 2.195312 -5.222656 2.09375 -5.078125 C 1.988281 -4.941406 1.863281 -4.832031 1.71875 -4.75 C 1.582031 -4.675781 1.421875 -4.625 1.234375 -4.59375 C 1.054688 -4.5625 0.875 -4.546875 0.6875 -4.546875 L 0.6875 -4.015625 L 2.140625 -4.015625 L 2.140625 0 Z M 2.8125 0 "/>
</g>
<g id="glyph-0-1">
<path d="M 0.34375 -3.625 L 1.015625 -3.625 C 1.015625 -3.789062 1.03125 -3.957031 1.0625 -4.125 C 1.101562 -4.289062 1.171875 -4.4375 1.265625 -4.5625 C 1.359375 -4.695312 1.472656 -4.804688 1.609375 -4.890625 C 1.742188 -4.972656 1.910156 -5.015625 2.109375 -5.015625 C 2.253906 -5.015625 2.394531 -4.988281 2.53125 -4.9375 C 2.664062 -4.894531 2.78125 -4.828125 2.875 -4.734375 C 2.96875 -4.640625 3.039062 -4.53125 3.09375 -4.40625 C 3.15625 -4.289062 3.1875 -4.15625 3.1875 -4 C 3.1875 -3.800781 3.15625 -3.628906 3.09375 -3.484375 C 3.039062 -3.335938 2.953125 -3.203125 2.828125 -3.078125 C 2.710938 -2.953125 2.566406 -2.828125 2.390625 -2.703125 C 2.210938 -2.578125 2.003906 -2.441406 1.765625 -2.296875 C 1.566406 -2.179688 1.378906 -2.054688 1.203125 -1.921875 C 1.023438 -1.785156 0.863281 -1.628906 0.71875 -1.453125 C 0.570312 -1.285156 0.453125 -1.082031 0.359375 -0.84375 C 0.273438 -0.613281 0.21875 -0.332031 0.1875 0 L 3.84375 0 L 3.84375 -0.59375 L 0.96875 -0.59375 C 1 -0.769531 1.066406 -0.921875 1.171875 -1.046875 C 1.273438 -1.179688 1.398438 -1.304688 1.546875 -1.421875 C 1.691406 -1.546875 1.847656 -1.65625 2.015625 -1.75 C 2.191406 -1.851562 2.367188 -1.960938 2.546875 -2.078125 C 2.722656 -2.179688 2.890625 -2.289062 3.046875 -2.40625 C 3.210938 -2.53125 3.359375 -2.664062 3.484375 -2.8125 C 3.609375 -2.96875 3.707031 -3.140625 3.78125 -3.328125 C 3.863281 -3.523438 3.90625 -3.75 3.90625 -4 C 3.90625 -4.257812 3.859375 -4.488281 3.765625 -4.6875 C 3.671875 -4.882812 3.546875 -5.050781 3.390625 -5.1875 C 3.234375 -5.320312 3.046875 -5.425781 2.828125 -5.5 C 2.617188 -5.570312 2.394531 -5.609375 2.15625 -5.609375 C 1.851562 -5.609375 1.585938 -5.554688 1.359375 -5.453125 C 1.128906 -5.359375 0.9375 -5.222656 0.78125 -5.046875 C 0.625 -4.867188 0.507812 -4.65625 0.4375 -4.40625 C 0.363281 -4.164062 0.332031 -3.90625 0.34375 -3.625 Z M 0.34375 -3.625 "/>
</g>
<g id="glyph-0-2">
<path d="M 2.6875 -1.90625 L 0.796875 -1.90625 L 2.671875 -4.65625 L 2.6875 -4.65625 Z M 3.3125 -1.90625 L 3.3125 -5.609375 L 2.78125 -5.609375 L 0.21875 -1.953125 L 0.21875 -1.3125 L 2.6875 -1.3125 L 2.6875 0 L 3.3125 0 L 3.3125 -1.3125 L 4.078125 -1.3125 L 4.078125 -1.90625 Z M 3.3125 -1.90625 "/>
</g>
<g id="glyph-0-3">
<path d="M 1.21875 -4.15625 C 1.21875 -4.289062 1.242188 -4.410156 1.296875 -4.515625 C 1.359375 -4.628906 1.429688 -4.722656 1.515625 -4.796875 C 1.597656 -4.867188 1.703125 -4.921875 1.828125 -4.953125 C 1.953125 -4.992188 2.078125 -5.015625 2.203125 -5.015625 C 2.472656 -5.015625 2.695312 -4.941406 2.875 -4.796875 C 3.050781 -4.648438 3.140625 -4.4375 3.140625 -4.15625 C 3.140625 -3.863281 3.050781 -3.640625 2.875 -3.484375 C 2.707031 -3.328125 2.488281 -3.25 2.21875 -3.25 C 2.082031 -3.25 1.953125 -3.265625 1.828125 -3.296875 C 1.710938 -3.335938 1.609375 -3.394531 1.515625 -3.46875 C 1.429688 -3.539062 1.359375 -3.632812 1.296875 -3.75 C 1.242188 -3.863281 1.21875 -4 1.21875 -4.15625 Z M 0.515625 -4.171875 C 0.515625 -3.921875 0.582031 -3.6875 0.71875 -3.46875 C 0.863281 -3.257812 1.054688 -3.109375 1.296875 -3.015625 C 0.984375 -2.898438 0.738281 -2.71875 0.5625 -2.46875 C 0.394531 -2.226562 0.3125 -1.941406 0.3125 -1.609375 C 0.3125 -1.328125 0.359375 -1.078125 0.453125 -0.859375 C 0.554688 -0.648438 0.691406 -0.472656 0.859375 -0.328125 C 1.035156 -0.191406 1.238281 -0.0859375 1.46875 -0.015625 C 1.695312 0.0546875 1.945312 0.09375 2.21875 0.09375 C 2.476562 0.09375 2.71875 0.0546875 2.9375 -0.015625 C 3.164062 -0.0976562 3.363281 -0.207031 3.53125 -0.34375 C 3.695312 -0.488281 3.828125 -0.664062 3.921875 -0.875 C 4.023438 -1.09375 4.078125 -1.335938 4.078125 -1.609375 C 4.078125 -1.960938 3.992188 -2.257812 3.828125 -2.5 C 3.671875 -2.738281 3.421875 -2.910156 3.078125 -3.015625 C 3.316406 -3.117188 3.503906 -3.273438 3.640625 -3.484375 C 3.785156 -3.691406 3.859375 -3.921875 3.859375 -4.171875 C 3.859375 -4.347656 3.828125 -4.519531 3.765625 -4.6875 C 3.703125 -4.863281 3.601562 -5.019531 3.46875 -5.15625 C 3.332031 -5.289062 3.15625 -5.398438 2.9375 -5.484375 C 2.71875 -5.566406 2.457031 -5.609375 2.15625 -5.609375 C 1.9375 -5.609375 1.726562 -5.578125 1.53125 -5.515625 C 1.332031 -5.453125 1.15625 -5.359375 1 -5.234375 C 0.851562 -5.109375 0.734375 -4.957031 0.640625 -4.78125 C 0.554688 -4.601562 0.515625 -4.398438 0.515625 -4.171875 Z M 1.03125 -1.578125 C 1.03125 -1.742188 1.054688 -1.890625 1.109375 -2.015625 C 1.171875 -2.148438 1.253906 -2.265625 1.359375 -2.359375 C 1.472656 -2.453125 1.601562 -2.523438 1.75 -2.578125 C 1.894531 -2.628906 2.050781 -2.65625 2.21875 -2.65625 C 2.375 -2.65625 2.519531 -2.625 2.65625 -2.5625 C 2.800781 -2.507812 2.925781 -2.4375 3.03125 -2.34375 C 3.132812 -2.25 3.21875 -2.132812 3.28125 -2 C 3.34375 -1.875 3.375 -1.738281 3.375 -1.59375 C 3.375 -1.4375 3.34375 -1.289062 3.28125 -1.15625 C 3.226562 -1.019531 3.148438 -0.90625 3.046875 -0.8125 C 2.941406 -0.71875 2.816406 -0.640625 2.671875 -0.578125 C 2.535156 -0.523438 2.382812 -0.5 2.21875 -0.5 C 1.875 -0.5 1.585938 -0.59375 1.359375 -0.78125 C 1.140625 -0.976562 1.03125 -1.242188 1.03125 -1.578125 Z M 1.03125 -1.578125 "/>
</g>
<g id="glyph-0-4">
<path d="M 3.265625 -4.171875 L 3.9375 -4.171875 C 3.894531 -4.640625 3.738281 -4.992188 3.46875 -5.234375 C 3.195312 -5.484375 2.828125 -5.609375 2.359375 -5.609375 C 1.960938 -5.609375 1.628906 -5.519531 1.359375 -5.34375 C 1.097656 -5.175781 0.890625 -4.953125 0.734375 -4.671875 C 0.578125 -4.398438 0.460938 -4.082031 0.390625 -3.71875 C 0.328125 -3.351562 0.296875 -2.976562 0.296875 -2.59375 C 0.296875 -2.300781 0.316406 -1.992188 0.359375 -1.671875 C 0.410156 -1.359375 0.503906 -1.070312 0.640625 -0.8125 C 0.773438 -0.550781 0.96875 -0.332031 1.21875 -0.15625 C 1.476562 0.0078125 1.816406 0.09375 2.234375 0.09375 C 2.585938 0.09375 2.882812 0.0351562 3.125 -0.078125 C 3.363281 -0.203125 3.550781 -0.351562 3.6875 -0.53125 C 3.832031 -0.71875 3.9375 -0.921875 4 -1.140625 C 4.070312 -1.367188 4.109375 -1.582031 4.109375 -1.78125 C 4.109375 -2.039062 4.066406 -2.28125 3.984375 -2.5 C 3.898438 -2.726562 3.785156 -2.921875 3.640625 -3.078125 C 3.503906 -3.242188 3.328125 -3.375 3.109375 -3.46875 C 2.898438 -3.5625 2.660156 -3.609375 2.390625 -3.609375 C 2.078125 -3.609375 1.800781 -3.546875 1.5625 -3.421875 C 1.332031 -3.304688 1.140625 -3.125 0.984375 -2.875 L 0.96875 -2.890625 C 0.976562 -3.097656 1 -3.328125 1.03125 -3.578125 C 1.070312 -3.828125 1.140625 -4.054688 1.234375 -4.265625 C 1.335938 -4.484375 1.472656 -4.660156 1.640625 -4.796875 C 1.816406 -4.941406 2.046875 -5.015625 2.328125 -5.015625 C 2.597656 -5.015625 2.8125 -4.9375 2.96875 -4.78125 C 3.132812 -4.625 3.234375 -4.421875 3.265625 -4.171875 Z M 2.265625 -3.015625 C 2.453125 -3.015625 2.613281 -2.976562 2.75 -2.90625 C 2.894531 -2.84375 3.015625 -2.753906 3.109375 -2.640625 C 3.203125 -2.523438 3.269531 -2.390625 3.3125 -2.234375 C 3.363281 -2.078125 3.390625 -1.910156 3.390625 -1.734375 C 3.390625 -1.578125 3.363281 -1.421875 3.3125 -1.265625 C 3.257812 -1.117188 3.1875 -0.988281 3.09375 -0.875 C 3 -0.757812 2.878906 -0.664062 2.734375 -0.59375 C 2.597656 -0.53125 2.441406 -0.5 2.265625 -0.5 C 2.078125 -0.5 1.910156 -0.53125 1.765625 -0.59375 C 1.617188 -0.664062 1.492188 -0.753906 1.390625 -0.859375 C 1.296875 -0.972656 1.222656 -1.101562 1.171875 -1.25 C 1.117188 -1.40625 1.09375 -1.570312 1.09375 -1.75 C 1.09375 -1.925781 1.117188 -2.085938 1.171875 -2.234375 C 1.222656 -2.390625 1.296875 -2.523438 1.390625 -2.640625 C 1.492188 -2.753906 1.613281 -2.84375 1.75 -2.90625 C 1.894531 -2.976562 2.066406 -3.015625 2.265625 -3.015625 Z M 2.265625 -3.015625 "/>
</g>
<g id="glyph-0-5">
<path d="M 1.71875 -3.203125 L 1.71875 -2.625 C 1.84375 -2.644531 1.976562 -2.65625 2.125 -2.65625 C 2.289062 -2.65625 2.445312 -2.628906 2.59375 -2.578125 C 2.738281 -2.535156 2.863281 -2.46875 2.96875 -2.375 C 3.070312 -2.289062 3.15625 -2.179688 3.21875 -2.046875 C 3.289062 -1.910156 3.328125 -1.753906 3.328125 -1.578125 C 3.328125 -1.410156 3.289062 -1.257812 3.21875 -1.125 C 3.15625 -0.988281 3.066406 -0.875 2.953125 -0.78125 C 2.847656 -0.6875 2.71875 -0.613281 2.5625 -0.5625 C 2.414062 -0.519531 2.265625 -0.5 2.109375 -0.5 C 1.722656 -0.5 1.425781 -0.613281 1.21875 -0.84375 C 1.019531 -1.070312 0.914062 -1.367188 0.90625 -1.734375 L 0.234375 -1.734375 C 0.234375 -1.441406 0.273438 -1.179688 0.359375 -0.953125 C 0.441406 -0.722656 0.566406 -0.53125 0.734375 -0.375 C 0.898438 -0.226562 1.097656 -0.113281 1.328125 -0.03125 C 1.554688 0.0507812 1.816406 0.09375 2.109375 0.09375 C 2.367188 0.09375 2.613281 0.0546875 2.84375 -0.015625 C 3.082031 -0.0859375 3.285156 -0.191406 3.453125 -0.328125 C 3.628906 -0.472656 3.769531 -0.648438 3.875 -0.859375 C 3.976562 -1.078125 4.03125 -1.328125 4.03125 -1.609375 C 4.03125 -1.953125 3.945312 -2.242188 3.78125 -2.484375 C 3.613281 -2.734375 3.359375 -2.894531 3.015625 -2.96875 L 3.015625 -2.984375 C 3.242188 -3.085938 3.429688 -3.234375 3.578125 -3.421875 C 3.722656 -3.617188 3.796875 -3.847656 3.796875 -4.109375 C 3.796875 -4.359375 3.75 -4.578125 3.65625 -4.765625 C 3.570312 -4.960938 3.453125 -5.117188 3.296875 -5.234375 C 3.148438 -5.359375 2.972656 -5.453125 2.765625 -5.515625 C 2.554688 -5.578125 2.332031 -5.609375 2.09375 -5.609375 C 1.8125 -5.609375 1.5625 -5.5625 1.34375 -5.46875 C 1.132812 -5.382812 0.957031 -5.257812 0.8125 -5.09375 C 0.664062 -4.9375 0.554688 -4.75 0.484375 -4.53125 C 0.410156 -4.3125 0.367188 -4.066406 0.359375 -3.796875 L 1.03125 -3.796875 C 1.03125 -3.960938 1.050781 -4.117188 1.09375 -4.265625 C 1.132812 -4.410156 1.195312 -4.535156 1.28125 -4.640625 C 1.375 -4.753906 1.484375 -4.84375 1.609375 -4.90625 C 1.742188 -4.976562 1.90625 -5.015625 2.09375 -5.015625 C 2.375 -5.015625 2.609375 -4.9375 2.796875 -4.78125 C 2.984375 -4.632812 3.078125 -4.410156 3.078125 -4.109375 C 3.078125 -3.960938 3.046875 -3.832031 2.984375 -3.71875 C 2.929688 -3.601562 2.851562 -3.503906 2.75 -3.421875 C 2.65625 -3.347656 2.546875 -3.289062 2.421875 -3.25 C 2.296875 -3.207031 2.160156 -3.1875 2.015625 -3.1875 L 1.875 -3.1875 C 1.84375 -3.1875 1.816406 -3.1875 1.796875 -3.1875 C 1.773438 -3.1875 1.75 -3.191406 1.71875 -3.203125 Z M 1.71875 -3.203125 "/>
</g>
<g id="glyph-0-6">
<path d="M 3.890625 0 L 3.890625 -4.09375 L 3.21875 -4.09375 L 3.21875 -1.78125 C 3.21875 -1.59375 3.191406 -1.421875 3.140625 -1.265625 C 3.085938 -1.109375 3.007812 -0.972656 2.90625 -0.859375 C 2.8125 -0.742188 2.6875 -0.65625 2.53125 -0.59375 C 2.382812 -0.53125 2.210938 -0.5 2.015625 -0.5 C 1.753906 -0.5 1.546875 -0.570312 1.390625 -0.71875 C 1.242188 -0.863281 1.171875 -1.066406 1.171875 -1.328125 L 1.171875 -4.09375 L 0.5 -4.09375 L 0.5 -1.40625 C 0.5 -1.175781 0.519531 -0.96875 0.5625 -0.78125 C 0.613281 -0.601562 0.691406 -0.445312 0.796875 -0.3125 C 0.910156 -0.1875 1.054688 -0.0859375 1.234375 -0.015625 C 1.421875 0.0546875 1.644531 0.09375 1.90625 0.09375 C 2.207031 0.09375 2.46875 0.0351562 2.6875 -0.078125 C 2.914062 -0.203125 3.097656 -0.390625 3.234375 -0.640625 L 3.25 -0.640625 L 3.25 0 Z M 3.890625 0 "/>
</g>
<g id="glyph-0-7">
<path d="M 0.921875 -1.28125 L 0.25 -1.28125 C 0.257812 -1.03125 0.3125 -0.816406 0.40625 -0.640625 C 0.5 -0.460938 0.625 -0.320312 0.78125 -0.21875 C 0.9375 -0.113281 1.117188 -0.0351562 1.328125 0.015625 C 1.535156 0.0664062 1.75 0.09375 1.96875 0.09375 C 2.175781 0.09375 2.382812 0.0703125 2.59375 0.03125 C 2.800781 -0.0078125 2.988281 -0.078125 3.15625 -0.171875 C 3.320312 -0.273438 3.457031 -0.410156 3.5625 -0.578125 C 3.664062 -0.742188 3.71875 -0.945312 3.71875 -1.1875 C 3.71875 -1.382812 3.675781 -1.546875 3.59375 -1.671875 C 3.519531 -1.804688 3.421875 -1.914062 3.296875 -2 C 3.171875 -2.09375 3.023438 -2.164062 2.859375 -2.21875 C 2.703125 -2.269531 2.539062 -2.316406 2.375 -2.359375 C 2.21875 -2.390625 2.0625 -2.421875 1.90625 -2.453125 C 1.75 -2.492188 1.601562 -2.539062 1.46875 -2.59375 C 1.34375 -2.644531 1.238281 -2.707031 1.15625 -2.78125 C 1.082031 -2.851562 1.046875 -2.945312 1.046875 -3.0625 C 1.046875 -3.164062 1.070312 -3.25 1.125 -3.3125 C 1.175781 -3.382812 1.242188 -3.441406 1.328125 -3.484375 C 1.410156 -3.523438 1.503906 -3.550781 1.609375 -3.5625 C 1.710938 -3.582031 1.8125 -3.59375 1.90625 -3.59375 C 2.019531 -3.59375 2.128906 -3.578125 2.234375 -3.546875 C 2.347656 -3.523438 2.445312 -3.488281 2.53125 -3.4375 C 2.625 -3.382812 2.695312 -3.3125 2.75 -3.21875 C 2.8125 -3.132812 2.847656 -3.03125 2.859375 -2.90625 L 3.53125 -2.90625 C 3.519531 -3.144531 3.46875 -3.347656 3.375 -3.515625 C 3.28125 -3.679688 3.160156 -3.8125 3.015625 -3.90625 C 2.867188 -4.007812 2.695312 -4.082031 2.5 -4.125 C 2.300781 -4.164062 2.085938 -4.1875 1.859375 -4.1875 C 1.679688 -4.1875 1.5 -4.160156 1.3125 -4.109375 C 1.132812 -4.066406 0.972656 -4 0.828125 -3.90625 C 0.679688 -3.8125 0.5625 -3.691406 0.46875 -3.546875 C 0.375 -3.398438 0.328125 -3.222656 0.328125 -3.015625 C 0.328125 -2.753906 0.394531 -2.550781 0.53125 -2.40625 C 0.664062 -2.257812 0.832031 -2.144531 1.03125 -2.0625 C 1.226562 -1.976562 1.441406 -1.910156 1.671875 -1.859375 C 1.898438 -1.816406 2.113281 -1.769531 2.3125 -1.71875 C 2.507812 -1.664062 2.671875 -1.59375 2.796875 -1.5 C 2.929688 -1.414062 3 -1.285156 3 -1.109375 C 3 -0.984375 2.96875 -0.878906 2.90625 -0.796875 C 2.84375 -0.710938 2.757812 -0.648438 2.65625 -0.609375 C 2.5625 -0.566406 2.457031 -0.535156 2.34375 -0.515625 C 2.226562 -0.503906 2.117188 -0.5 2.015625 -0.5 C 1.878906 -0.5 1.742188 -0.507812 1.609375 -0.53125 C 1.484375 -0.5625 1.367188 -0.609375 1.265625 -0.671875 C 1.160156 -0.734375 1.078125 -0.8125 1.015625 -0.90625 C 0.953125 -1.007812 0.921875 -1.132812 0.921875 -1.28125 Z M 0.921875 -1.28125 "/>
</g>
<g id="glyph-0-8">
<path d="M 3.34375 -2.4375 L 1 -2.4375 C 1.007812 -2.59375 1.039062 -2.738281 1.09375 -2.875 C 1.15625 -3.019531 1.234375 -3.144531 1.328125 -3.25 C 1.429688 -3.351562 1.550781 -3.4375 1.6875 -3.5 C 1.832031 -3.5625 1.992188 -3.59375 2.171875 -3.59375 C 2.335938 -3.59375 2.488281 -3.5625 2.625 -3.5 C 2.769531 -3.4375 2.890625 -3.351562 2.984375 -3.25 C 3.085938 -3.144531 3.171875 -3.019531 3.234375 -2.875 C 3.296875 -2.738281 3.332031 -2.59375 3.34375 -2.4375 Z M 4 -1.296875 L 3.328125 -1.296875 C 3.265625 -1.023438 3.144531 -0.820312 2.96875 -0.6875 C 2.789062 -0.5625 2.554688 -0.5 2.265625 -0.5 C 2.046875 -0.5 1.851562 -0.535156 1.6875 -0.609375 C 1.53125 -0.679688 1.394531 -0.78125 1.28125 -0.90625 C 1.175781 -1.03125 1.097656 -1.171875 1.046875 -1.328125 C 1.003906 -1.492188 0.988281 -1.664062 1 -1.84375 L 4.0625 -1.84375 C 4.070312 -2.09375 4.046875 -2.351562 3.984375 -2.625 C 3.929688 -2.894531 3.832031 -3.144531 3.6875 -3.375 C 3.539062 -3.613281 3.347656 -3.804688 3.109375 -3.953125 C 2.867188 -4.109375 2.566406 -4.1875 2.203125 -4.1875 C 1.921875 -4.1875 1.660156 -4.128906 1.421875 -4.015625 C 1.191406 -3.910156 0.988281 -3.765625 0.8125 -3.578125 C 0.644531 -3.390625 0.515625 -3.164062 0.421875 -2.90625 C 0.328125 -2.644531 0.28125 -2.363281 0.28125 -2.0625 C 0.289062 -1.75 0.335938 -1.457031 0.421875 -1.1875 C 0.503906 -0.925781 0.625 -0.703125 0.78125 -0.515625 C 0.945312 -0.328125 1.148438 -0.175781 1.390625 -0.0625 C 1.628906 0.0390625 1.914062 0.09375 2.25 0.09375 C 2.707031 0.09375 3.085938 -0.0195312 3.390625 -0.25 C 3.703125 -0.488281 3.90625 -0.835938 4 -1.296875 Z M 4 -1.296875 "/>
</g>
<g id="glyph-0-9">
<path d="M 0.484375 -4.09375 L 0.484375 0 L 1.15625 0 L 1.15625 -1.8125 C 1.15625 -2.082031 1.179688 -2.316406 1.234375 -2.515625 C 1.285156 -2.722656 1.367188 -2.894531 1.484375 -3.03125 C 1.597656 -3.175781 1.75 -3.285156 1.9375 -3.359375 C 2.132812 -3.429688 2.363281 -3.46875 2.625 -3.46875 L 2.625 -4.1875 C 2.269531 -4.195312 1.972656 -4.117188 1.734375 -3.953125 C 1.492188 -3.796875 1.289062 -3.550781 1.125 -3.21875 L 1.109375 -3.21875 L 1.109375 -4.09375 Z M 0.484375 -4.09375 "/>
</g>
<g id="glyph-0-10">
<path d="M 0.5 -4.09375 L 0.5 0 L 1.171875 0 L 1.171875 -2.546875 C 1.171875 -2.628906 1.191406 -2.726562 1.234375 -2.84375 C 1.273438 -2.957031 1.335938 -3.070312 1.421875 -3.1875 C 1.515625 -3.300781 1.628906 -3.394531 1.765625 -3.46875 C 1.898438 -3.550781 2.066406 -3.59375 2.265625 -3.59375 C 2.421875 -3.59375 2.546875 -3.566406 2.640625 -3.515625 C 2.742188 -3.472656 2.820312 -3.410156 2.875 -3.328125 C 2.9375 -3.242188 2.976562 -3.144531 3 -3.03125 C 3.019531 -2.925781 3.03125 -2.8125 3.03125 -2.6875 L 3.03125 0 L 3.703125 0 L 3.703125 -2.546875 C 3.703125 -2.859375 3.796875 -3.109375 3.984375 -3.296875 C 4.179688 -3.492188 4.445312 -3.59375 4.78125 -3.59375 C 4.9375 -3.59375 5.066406 -3.566406 5.171875 -3.515625 C 5.273438 -3.472656 5.351562 -3.410156 5.40625 -3.328125 C 5.46875 -3.242188 5.507812 -3.144531 5.53125 -3.03125 C 5.550781 -2.925781 5.5625 -2.8125 5.5625 -2.6875 L 5.5625 0 L 6.234375 0 L 6.234375 -3 C 6.234375 -3.207031 6.203125 -3.382812 6.140625 -3.53125 C 6.078125 -3.6875 5.984375 -3.8125 5.859375 -3.90625 C 5.742188 -4 5.601562 -4.066406 5.4375 -4.109375 C 5.269531 -4.160156 5.082031 -4.1875 4.875 -4.1875 C 4.601562 -4.1875 4.351562 -4.125 4.125 -4 C 3.90625 -3.875 3.726562 -3.703125 3.59375 -3.484375 C 3.507812 -3.734375 3.363281 -3.910156 3.15625 -4.015625 C 2.957031 -4.128906 2.726562 -4.1875 2.46875 -4.1875 C 1.894531 -4.1875 1.457031 -3.953125 1.15625 -3.484375 L 1.140625 -3.484375 L 1.140625 -4.09375 Z M 0.5 -4.09375 "/>
</g>
<g id="glyph-0-11">
<path d="M 4.125 -0.015625 C 4.007812 0.0546875 3.847656 0.09375 3.640625 0.09375 C 3.472656 0.09375 3.335938 0.0429688 3.234375 -0.046875 C 3.128906 -0.148438 3.078125 -0.3125 3.078125 -0.53125 C 2.890625 -0.3125 2.671875 -0.148438 2.421875 -0.046875 C 2.179688 0.0429688 1.921875 0.09375 1.640625 0.09375 C 1.453125 0.09375 1.273438 0.0664062 1.109375 0.015625 C 0.941406 -0.0234375 0.796875 -0.0859375 0.671875 -0.171875 C 0.554688 -0.265625 0.460938 -0.382812 0.390625 -0.53125 C 0.316406 -0.675781 0.28125 -0.847656 0.28125 -1.046875 C 0.28125 -1.285156 0.316406 -1.476562 0.390625 -1.625 C 0.472656 -1.769531 0.578125 -1.890625 0.703125 -1.984375 C 0.835938 -2.078125 0.988281 -2.144531 1.15625 -2.1875 C 1.320312 -2.238281 1.492188 -2.28125 1.671875 -2.3125 C 1.847656 -2.34375 2.019531 -2.367188 2.1875 -2.390625 C 2.351562 -2.410156 2.5 -2.4375 2.625 -2.46875 C 2.757812 -2.5 2.863281 -2.546875 2.9375 -2.609375 C 3.007812 -2.679688 3.046875 -2.78125 3.046875 -2.90625 C 3.046875 -3.050781 3.015625 -3.171875 2.953125 -3.265625 C 2.898438 -3.359375 2.828125 -3.425781 2.734375 -3.46875 C 2.648438 -3.519531 2.554688 -3.550781 2.453125 -3.5625 C 2.347656 -3.582031 2.242188 -3.59375 2.140625 -3.59375 C 1.847656 -3.59375 1.609375 -3.535156 1.421875 -3.421875 C 1.234375 -3.316406 1.128906 -3.113281 1.109375 -2.8125 L 0.4375 -2.8125 C 0.445312 -3.0625 0.5 -3.273438 0.59375 -3.453125 C 0.695312 -3.628906 0.828125 -3.769531 0.984375 -3.875 C 1.140625 -3.988281 1.316406 -4.066406 1.515625 -4.109375 C 1.722656 -4.160156 1.941406 -4.1875 2.171875 -4.1875 C 2.359375 -4.1875 2.539062 -4.171875 2.71875 -4.140625 C 2.90625 -4.117188 3.070312 -4.066406 3.21875 -3.984375 C 3.363281 -3.898438 3.476562 -3.785156 3.5625 -3.640625 C 3.65625 -3.492188 3.703125 -3.300781 3.703125 -3.0625 L 3.703125 -0.953125 C 3.703125 -0.796875 3.710938 -0.679688 3.734375 -0.609375 C 3.753906 -0.535156 3.816406 -0.5 3.921875 -0.5 C 3.984375 -0.5 4.050781 -0.507812 4.125 -0.53125 Z M 3.03125 -2.109375 C 2.945312 -2.046875 2.835938 -2 2.703125 -1.96875 C 2.566406 -1.9375 2.421875 -1.910156 2.265625 -1.890625 C 2.117188 -1.878906 1.96875 -1.859375 1.8125 -1.828125 C 1.664062 -1.804688 1.53125 -1.769531 1.40625 -1.71875 C 1.28125 -1.664062 1.179688 -1.59375 1.109375 -1.5 C 1.035156 -1.40625 1 -1.269531 1 -1.09375 C 1 -0.988281 1.019531 -0.894531 1.0625 -0.8125 C 1.101562 -0.738281 1.160156 -0.675781 1.234375 -0.625 C 1.304688 -0.582031 1.390625 -0.550781 1.484375 -0.53125 C 1.578125 -0.507812 1.675781 -0.5 1.78125 -0.5 C 2.007812 -0.5 2.203125 -0.53125 2.359375 -0.59375 C 2.515625 -0.65625 2.640625 -0.726562 2.734375 -0.8125 C 2.835938 -0.90625 2.910156 -1.003906 2.953125 -1.109375 C 3.003906 -1.222656 3.03125 -1.328125 3.03125 -1.421875 Z M 3.03125 -2.109375 "/>
</g>
<g id="glyph-0-12">
<path d="M 4.03125 -0.34375 L 4.03125 -4.09375 L 3.40625 -4.09375 L 3.40625 -3.5 L 3.390625 -3.5 C 3.265625 -3.726562 3.09375 -3.898438 2.875 -4.015625 C 2.664062 -4.128906 2.429688 -4.1875 2.171875 -4.1875 C 1.816406 -4.1875 1.519531 -4.117188 1.28125 -3.984375 C 1.039062 -3.847656 0.84375 -3.675781 0.6875 -3.46875 C 0.539062 -3.257812 0.4375 -3.023438 0.375 -2.765625 C 0.3125 -2.515625 0.28125 -2.269531 0.28125 -2.03125 C 0.28125 -1.75 0.316406 -1.484375 0.390625 -1.234375 C 0.472656 -0.984375 0.585938 -0.765625 0.734375 -0.578125 C 0.890625 -0.390625 1.082031 -0.238281 1.3125 -0.125 C 1.539062 -0.0078125 1.804688 0.046875 2.109375 0.046875 C 2.367188 0.046875 2.613281 -0.0078125 2.84375 -0.125 C 3.082031 -0.25 3.265625 -0.441406 3.390625 -0.703125 L 3.40625 -0.703125 L 3.40625 -0.421875 C 3.40625 -0.203125 3.378906 0 3.328125 0.1875 C 3.285156 0.382812 3.210938 0.550781 3.109375 0.6875 C 3.015625 0.820312 2.890625 0.925781 2.734375 1 C 2.578125 1.070312 2.390625 1.109375 2.171875 1.109375 C 2.066406 1.109375 1.953125 1.097656 1.828125 1.078125 C 1.703125 1.054688 1.585938 1.019531 1.484375 0.96875 C 1.390625 0.914062 1.304688 0.84375 1.234375 0.75 C 1.160156 0.664062 1.117188 0.566406 1.109375 0.453125 L 0.4375 0.453125 C 0.445312 0.671875 0.503906 0.851562 0.609375 1 C 0.722656 1.15625 0.859375 1.28125 1.015625 1.375 C 1.171875 1.476562 1.347656 1.550781 1.546875 1.59375 C 1.742188 1.632812 1.941406 1.65625 2.140625 1.65625 C 2.785156 1.65625 3.257812 1.488281 3.5625 1.15625 C 3.875 0.820312 4.03125 0.320312 4.03125 -0.34375 Z M 2.15625 -0.546875 C 1.925781 -0.546875 1.738281 -0.59375 1.59375 -0.6875 C 1.445312 -0.78125 1.328125 -0.898438 1.234375 -1.046875 C 1.148438 -1.191406 1.085938 -1.359375 1.046875 -1.546875 C 1.015625 -1.734375 1 -1.921875 1 -2.109375 C 1 -2.296875 1.019531 -2.476562 1.0625 -2.65625 C 1.101562 -2.84375 1.171875 -3.003906 1.265625 -3.140625 C 1.367188 -3.273438 1.492188 -3.382812 1.640625 -3.46875 C 1.796875 -3.550781 1.984375 -3.59375 2.203125 -3.59375 C 2.410156 -3.59375 2.585938 -3.550781 2.734375 -3.46875 C 2.890625 -3.382812 3.007812 -3.269531 3.09375 -3.125 C 3.1875 -2.988281 3.253906 -2.832031 3.296875 -2.65625 C 3.347656 -2.476562 3.375 -2.300781 3.375 -2.125 C 3.375 -1.9375 3.347656 -1.742188 3.296875 -1.546875 C 3.253906 -1.359375 3.1875 -1.191406 3.09375 -1.046875 C 3 -0.898438 2.875 -0.78125 2.71875 -0.6875 C 2.5625 -0.59375 2.375 -0.546875 2.15625 -0.546875 Z M 2.15625 -0.546875 "/>
</g>
<g id="glyph-0-13">
<path d="M 1.21875 -4.828125 L 1.21875 -5.640625 L 0.546875 -5.640625 L 0.546875 -4.828125 Z M 0.546875 -4.09375 L 0.546875 0 L 1.21875 0 L 1.21875 -4.09375 Z M 0.546875 -4.09375 "/>
</g>
<g id="glyph-0-14">
<path d="M 0.5 -4.09375 L 0.5 0 L 1.171875 0 L 1.171875 -2.3125 C 1.171875 -2.488281 1.195312 -2.65625 1.25 -2.8125 C 1.300781 -2.96875 1.375 -3.101562 1.46875 -3.21875 C 1.570312 -3.34375 1.695312 -3.4375 1.84375 -3.5 C 2 -3.5625 2.179688 -3.59375 2.390625 -3.59375 C 2.648438 -3.59375 2.851562 -3.515625 3 -3.359375 C 3.144531 -3.210938 3.21875 -3.015625 3.21875 -2.765625 L 3.21875 0 L 3.890625 0 L 3.890625 -2.6875 C 3.890625 -2.90625 3.863281 -3.101562 3.8125 -3.28125 C 3.769531 -3.46875 3.691406 -3.628906 3.578125 -3.765625 C 3.472656 -3.898438 3.332031 -4.003906 3.15625 -4.078125 C 2.976562 -4.148438 2.753906 -4.1875 2.484375 -4.1875 C 1.878906 -4.1875 1.4375 -3.9375 1.15625 -3.4375 L 1.140625 -3.4375 L 1.140625 -4.09375 Z M 0.5 -4.09375 "/>
</g>
<g id="glyph-0-15">
<path d="M 1.4375 -4.09375 L 1.4375 -5.3125 L 0.765625 -5.3125 L 0.765625 -4.09375 L 0.078125 -4.09375 L 0.078125 -3.5 L 0.765625 -3.5 L 0.765625 -0.890625 C 0.765625 -0.703125 0.78125 -0.550781 0.8125 -0.4375 C 0.851562 -0.320312 0.910156 -0.234375 0.984375 -0.171875 C 1.066406 -0.109375 1.171875 -0.0625 1.296875 -0.03125 C 1.421875 -0.0078125 1.566406 0 1.734375 0 L 2.25 0 L 2.25 -0.59375 L 1.9375 -0.59375 C 1.832031 -0.59375 1.75 -0.59375 1.6875 -0.59375 C 1.625 -0.601562 1.570312 -0.625 1.53125 -0.65625 C 1.5 -0.6875 1.472656 -0.722656 1.453125 -0.765625 C 1.441406 -0.816406 1.4375 -0.878906 1.4375 -0.953125 L 1.4375 -3.5 L 2.25 -3.5 L 2.25 -4.09375 Z M 1.4375 -4.09375 "/>
</g>
<g id="glyph-0-16">
<path d="M 0.5 -5.640625 L 0.5 0 L 1.171875 0 L 1.171875 -2.3125 C 1.171875 -2.488281 1.195312 -2.65625 1.25 -2.8125 C 1.300781 -2.96875 1.375 -3.101562 1.46875 -3.21875 C 1.570312 -3.34375 1.695312 -3.4375 1.84375 -3.5 C 2 -3.5625 2.179688 -3.59375 2.390625 -3.59375 C 2.648438 -3.59375 2.851562 -3.515625 3 -3.359375 C 3.144531 -3.210938 3.21875 -3.015625 3.21875 -2.765625 L 3.21875 0 L 3.890625 0 L 3.890625 -2.6875 C 3.890625 -2.90625 3.863281 -3.101562 3.8125 -3.28125 C 3.769531 -3.46875 3.691406 -3.628906 3.578125 -3.765625 C 3.472656 -3.898438 3.332031 -4.003906 3.15625 -4.078125 C 2.976562 -4.148438 2.753906 -4.1875 2.484375 -4.1875 C 2.359375 -4.1875 2.226562 -4.171875 2.09375 -4.140625 C 1.96875 -4.117188 1.847656 -4.078125 1.734375 -4.015625 C 1.617188 -3.960938 1.507812 -3.890625 1.40625 -3.796875 C 1.3125 -3.710938 1.238281 -3.609375 1.1875 -3.484375 L 1.171875 -3.484375 L 1.171875 -5.640625 Z M 0.5 -5.640625 "/>
</g>
<g id="glyph-0-17">
<path d="M 1 -2.046875 C 1 -2.285156 1.03125 -2.5 1.09375 -2.6875 C 1.15625 -2.882812 1.242188 -3.050781 1.359375 -3.1875 C 1.484375 -3.320312 1.625 -3.421875 1.78125 -3.484375 C 1.9375 -3.554688 2.097656 -3.59375 2.265625 -3.59375 C 2.441406 -3.59375 2.609375 -3.554688 2.765625 -3.484375 C 2.921875 -3.421875 3.054688 -3.320312 3.171875 -3.1875 C 3.285156 -3.050781 3.375 -2.882812 3.4375 -2.6875 C 3.507812 -2.5 3.546875 -2.285156 3.546875 -2.046875 C 3.546875 -1.796875 3.507812 -1.570312 3.4375 -1.375 C 3.375 -1.1875 3.285156 -1.023438 3.171875 -0.890625 C 3.054688 -0.765625 2.921875 -0.664062 2.765625 -0.59375 C 2.609375 -0.53125 2.441406 -0.5 2.265625 -0.5 C 2.097656 -0.5 1.9375 -0.53125 1.78125 -0.59375 C 1.625 -0.664062 1.484375 -0.765625 1.359375 -0.890625 C 1.242188 -1.023438 1.15625 -1.1875 1.09375 -1.375 C 1.03125 -1.570312 1 -1.796875 1 -2.046875 Z M 0.28125 -2.046875 C 0.28125 -1.742188 0.320312 -1.460938 0.40625 -1.203125 C 0.488281 -0.941406 0.613281 -0.710938 0.78125 -0.515625 C 0.957031 -0.328125 1.164062 -0.175781 1.40625 -0.0625 C 1.65625 0.0390625 1.941406 0.09375 2.265625 0.09375 C 2.597656 0.09375 2.882812 0.0390625 3.125 -0.0625 C 3.375 -0.175781 3.582031 -0.328125 3.75 -0.515625 C 3.914062 -0.710938 4.039062 -0.941406 4.125 -1.203125 C 4.207031 -1.460938 4.25 -1.742188 4.25 -2.046875 C 4.25 -2.335938 4.207031 -2.613281 4.125 -2.875 C 4.039062 -3.132812 3.914062 -3.359375 3.75 -3.546875 C 3.582031 -3.742188 3.375 -3.898438 3.125 -4.015625 C 2.882812 -4.128906 2.597656 -4.1875 2.265625 -4.1875 C 1.941406 -4.1875 1.65625 -4.128906 1.40625 -4.015625 C 1.164062 -3.898438 0.957031 -3.742188 0.78125 -3.546875 C 0.613281 -3.359375 0.488281 -3.132812 0.40625 -2.875 C 0.320312 -2.613281 0.28125 -2.335938 0.28125 -2.046875 Z M 0.28125 -2.046875 "/>
</g>
<g id="glyph-0-18">
<path d="M 0.390625 -2.515625 L 0.390625 -1.875 L 2.6875 -1.875 L 2.6875 -2.515625 Z M 0.390625 -2.515625 "/>
</g>
<g id="glyph-0-19">
<path d="M 0.53125 -4.09375 L 0.53125 1.5625 L 1.203125 1.5625 L 1.203125 -0.546875 L 1.21875 -0.546875 C 1.289062 -0.421875 1.378906 -0.316406 1.484375 -0.234375 C 1.597656 -0.160156 1.710938 -0.0976562 1.828125 -0.046875 C 1.953125 0.00390625 2.078125 0.0390625 2.203125 0.0625 C 2.328125 0.0820312 2.4375 0.09375 2.53125 0.09375 C 2.84375 0.09375 3.113281 0.0351562 3.34375 -0.078125 C 3.582031 -0.191406 3.78125 -0.34375 3.9375 -0.53125 C 4.09375 -0.726562 4.207031 -0.953125 4.28125 -1.203125 C 4.363281 -1.460938 4.40625 -1.738281 4.40625 -2.03125 C 4.40625 -2.320312 4.363281 -2.59375 4.28125 -2.84375 C 4.207031 -3.101562 4.09375 -3.332031 3.9375 -3.53125 C 3.78125 -3.726562 3.582031 -3.882812 3.34375 -4 C 3.113281 -4.125 2.835938 -4.1875 2.515625 -4.1875 C 2.234375 -4.1875 1.972656 -4.132812 1.734375 -4.03125 C 1.503906 -3.925781 1.332031 -3.757812 1.21875 -3.53125 L 1.203125 -3.53125 L 1.203125 -4.09375 Z M 3.6875 -2.078125 C 3.6875 -1.878906 3.664062 -1.679688 3.625 -1.484375 C 3.582031 -1.296875 3.515625 -1.128906 3.421875 -0.984375 C 3.328125 -0.835938 3.203125 -0.71875 3.046875 -0.625 C 2.890625 -0.539062 2.695312 -0.5 2.46875 -0.5 C 2.238281 -0.5 2.039062 -0.539062 1.875 -0.625 C 1.707031 -0.71875 1.570312 -0.832031 1.46875 -0.96875 C 1.375 -1.113281 1.300781 -1.28125 1.25 -1.46875 C 1.195312 -1.65625 1.171875 -1.847656 1.171875 -2.046875 C 1.171875 -2.234375 1.191406 -2.421875 1.234375 -2.609375 C 1.285156 -2.796875 1.359375 -2.960938 1.453125 -3.109375 C 1.554688 -3.253906 1.6875 -3.367188 1.84375 -3.453125 C 2.007812 -3.546875 2.203125 -3.59375 2.421875 -3.59375 C 2.640625 -3.59375 2.828125 -3.550781 2.984375 -3.46875 C 3.148438 -3.382812 3.285156 -3.269531 3.390625 -3.125 C 3.492188 -2.976562 3.566406 -2.8125 3.609375 -2.625 C 3.660156 -2.445312 3.6875 -2.265625 3.6875 -2.078125 Z M 3.6875 -2.078125 "/>
</g>
<g id="glyph-0-20">
<path d="M 0.546875 -5.640625 L 0.546875 0 L 1.21875 0 L 1.21875 -5.640625 Z M 0.546875 -5.640625 "/>
</g>
<g id="glyph-0-21">
<path d="M 1 -2.015625 C 1 -2.210938 1.019531 -2.40625 1.0625 -2.59375 C 1.101562 -2.78125 1.171875 -2.945312 1.265625 -3.09375 C 1.359375 -3.25 1.484375 -3.367188 1.640625 -3.453125 C 1.796875 -3.546875 1.988281 -3.59375 2.21875 -3.59375 C 2.445312 -3.59375 2.644531 -3.546875 2.8125 -3.453125 C 2.976562 -3.367188 3.113281 -3.253906 3.21875 -3.109375 C 3.320312 -2.972656 3.394531 -2.8125 3.4375 -2.625 C 3.488281 -2.4375 3.515625 -2.242188 3.515625 -2.046875 C 3.515625 -1.847656 3.488281 -1.65625 3.4375 -1.46875 C 3.394531 -1.289062 3.320312 -1.128906 3.21875 -0.984375 C 3.125 -0.835938 2.992188 -0.71875 2.828125 -0.625 C 2.671875 -0.539062 2.484375 -0.5 2.265625 -0.5 C 2.046875 -0.5 1.851562 -0.539062 1.6875 -0.625 C 1.53125 -0.707031 1.398438 -0.816406 1.296875 -0.953125 C 1.191406 -1.097656 1.113281 -1.257812 1.0625 -1.4375 C 1.019531 -1.625 1 -1.816406 1 -2.015625 Z M 4.15625 0 L 4.15625 -5.640625 L 3.484375 -5.640625 L 3.484375 -3.546875 L 3.46875 -3.546875 C 3.394531 -3.660156 3.300781 -3.757812 3.1875 -3.84375 C 3.082031 -3.925781 2.96875 -3.992188 2.84375 -4.046875 C 2.726562 -4.097656 2.609375 -4.132812 2.484375 -4.15625 C 2.367188 -4.175781 2.257812 -4.1875 2.15625 -4.1875 C 1.84375 -4.1875 1.566406 -4.128906 1.328125 -4.015625 C 1.097656 -3.898438 0.90625 -3.742188 0.75 -3.546875 C 0.59375 -3.359375 0.472656 -3.132812 0.390625 -2.875 C 0.316406 -2.613281 0.28125 -2.34375 0.28125 -2.0625 C 0.28125 -1.769531 0.316406 -1.492188 0.390625 -1.234375 C 0.472656 -0.972656 0.59375 -0.742188 0.75 -0.546875 C 0.90625 -0.359375 1.097656 -0.203125 1.328125 -0.078125 C 1.566406 0.0351562 1.847656 0.09375 2.171875 0.09375 C 2.453125 0.09375 2.710938 0.0390625 2.953125 -0.0625 C 3.191406 -0.164062 3.363281 -0.328125 3.46875 -0.546875 L 3.484375 -0.546875 L 3.484375 0 Z M 4.15625 0 "/>
</g>
<g id="glyph-1-0">
<path d="M 5.53125 -1.796875 C 5.671875 -1.796875 5.84375 -1.796875 5.84375 -1.984375 C 5.84375 -2.15625 5.671875 -2.15625 5.53125 -2.15625 L 1 -2.15625 C 0.875 -2.15625 0.703125 -2.15625 0.703125 -1.984375 C 0.703125 -1.796875 0.875 -1.796875 1 -1.796875 Z M 5.53125 -1.796875 "/>
</g>
<g id="glyph-2-0">
<path d="M 2 -2.640625 C 2.625 -2.640625 3.03125 -2.1875 3.03125 -1.359375 C 3.03125 -0.359375 2.46875 -0.078125 2.046875 -0.078125 C 1.609375 -0.078125 1.015625 -0.234375 0.734375 -0.65625 C 1.015625 -0.65625 1.21875 -0.828125 1.21875 -1.09375 C 1.21875 -1.34375 1.03125 -1.53125 0.78125 -1.53125 C 0.578125 -1.53125 0.34375 -1.390625 0.34375 -1.078125 C 0.34375 -0.328125 1.15625 0.171875 2.0625 0.171875 C 3.109375 0.171875 3.84375 -0.5625 3.84375 -1.359375 C 3.84375 -2.015625 3.328125 -2.609375 2.515625 -2.78125 C 3.140625 -3.015625 3.609375 -3.546875 3.609375 -4.1875 C 3.609375 -4.8125 2.90625 -5.265625 2.078125 -5.265625 C 1.234375 -5.265625 0.59375 -4.8125 0.59375 -4.203125 C 0.59375 -3.90625 0.78125 -3.78125 0.984375 -3.78125 C 1.234375 -3.78125 1.390625 -3.96875 1.390625 -4.1875 C 1.390625 -4.484375 1.140625 -4.59375 0.96875 -4.609375 C 1.296875 -5.03125 1.90625 -5.0625 2.046875 -5.0625 C 2.25 -5.0625 2.859375 -5 2.859375 -4.1875 C 2.859375 -3.625 2.625 -3.296875 2.515625 -3.171875 C 2.28125 -2.921875 2.09375 -2.90625 1.609375 -2.875 C 1.46875 -2.875 1.40625 -2.859375 1.40625 -2.75 C 1.40625 -2.640625 1.46875 -2.640625 1.609375 -2.640625 Z M 2 -2.640625 "/>
</g>
<g id="glyph-2-1">
<path d="M 3.875 -2.53125 C 3.875 -3.375 3.78125 -3.890625 3.53125 -4.390625 C 3.171875 -5.09375 2.53125 -5.265625 2.09375 -5.265625 C 1.09375 -5.265625 0.734375 -4.515625 0.625 -4.296875 C 0.34375 -3.71875 0.328125 -2.9375 0.328125 -2.53125 C 0.328125 -2 0.34375 -1.203125 0.734375 -0.578125 C 1.09375 0.015625 1.671875 0.171875 2.09375 0.171875 C 2.484375 0.171875 3.15625 0.046875 3.5625 -0.734375 C 3.84375 -1.3125 3.875 -2.015625 3.875 -2.53125 Z M 2.09375 -0.0625 C 1.828125 -0.0625 1.28125 -0.1875 1.109375 -1.015625 C 1.03125 -1.46875 1.03125 -2.203125 1.03125 -2.625 C 1.03125 -3.171875 1.03125 -3.71875 1.109375 -4.15625 C 1.28125 -4.96875 1.90625 -5.046875 2.09375 -5.046875 C 2.375 -5.046875 2.921875 -4.90625 3.078125 -4.1875 C 3.171875 -3.75 3.171875 -3.15625 3.171875 -2.625 C 3.171875 -2.15625 3.171875 -1.4375 3.078125 -1 C 2.90625 -0.171875 2.359375 -0.0625 2.09375 -0.0625 Z M 2.09375 -0.0625 "/>
</g>
<g id="glyph-2-2">
<path d="M 2.234375 -1.609375 C 2.359375 -1.734375 2.6875 -2 2.8125 -2.109375 C 3.3125 -2.5625 3.78125 -3 3.78125 -3.71875 C 3.78125 -4.65625 2.984375 -5.265625 2 -5.265625 C 1.046875 -5.265625 0.421875 -4.546875 0.421875 -3.84375 C 0.421875 -3.453125 0.734375 -3.40625 0.84375 -3.40625 C 1 -3.40625 1.25 -3.515625 1.25 -3.8125 C 1.25 -4.234375 0.859375 -4.234375 0.765625 -4.234375 C 0.984375 -4.8125 1.515625 -5 1.90625 -5 C 2.640625 -5 3.03125 -4.375 3.03125 -3.71875 C 3.03125 -2.890625 2.453125 -2.296875 1.515625 -1.328125 L 0.515625 -0.296875 C 0.421875 -0.21875 0.421875 -0.203125 0.421875 0 L 3.546875 0 L 3.78125 -1.421875 L 3.53125 -1.421875 C 3.515625 -1.265625 3.453125 -0.859375 3.34375 -0.71875 C 3.296875 -0.65625 2.703125 -0.65625 2.578125 -0.65625 L 1.171875 -0.65625 Z M 2.234375 -1.609375 "/>
</g>
<g id="glyph-2-3">
<path d="M 2.484375 -5.046875 C 2.484375 -5.265625 2.46875 -5.265625 2.25 -5.265625 C 1.9375 -4.953125 1.515625 -4.765625 0.765625 -4.765625 L 0.765625 -4.5 C 0.96875 -4.5 1.40625 -4.5 1.859375 -4.71875 L 1.859375 -0.65625 C 1.859375 -0.359375 1.84375 -0.265625 1.078125 -0.265625 L 0.8125 -0.265625 L 0.8125 0 C 1.140625 -0.03125 1.8125 -0.03125 2.171875 -0.03125 C 2.53125 -0.03125 3.21875 -0.03125 3.546875 0 L 3.546875 -0.265625 L 3.265625 -0.265625 C 2.515625 -0.265625 2.484375 -0.359375 2.484375 -0.65625 Z M 2.484375 -5.046875 "/>
</g>
<g id="glyph-3-0">
<path d="M 0 -3.890625 L -4.09375 -3.890625 L -4.09375 -3.21875 L -1.78125 -3.21875 C -1.59375 -3.21875 -1.421875 -3.191406 -1.265625 -3.140625 C -1.109375 -3.085938 -0.972656 -3.007812 -0.859375 -2.90625 C -0.742188 -2.8125 -0.65625 -2.6875 -0.59375 -2.53125 C -0.53125 -2.382812 -0.5 -2.210938 -0.5 -2.015625 C -0.5 -1.753906 -0.570312 -1.546875 -0.71875 -1.390625 C -0.863281 -1.242188 -1.066406 -1.171875 -1.328125 -1.171875 L -4.09375 -1.171875 L -4.09375 -0.5 L -1.40625 -0.5 C -1.175781 -0.5 -0.96875 -0.519531 -0.78125 -0.5625 C -0.601562 -0.613281 -0.445312 -0.691406 -0.3125 -0.796875 C -0.1875 -0.910156 -0.0859375 -1.054688 -0.015625 -1.234375 C 0.0546875 -1.421875 0.09375 -1.644531 0.09375 -1.90625 C 0.09375 -2.207031 0.0351562 -2.46875 -0.078125 -2.6875 C -0.203125 -2.914062 -0.390625 -3.097656 -0.640625 -3.234375 L -0.640625 -3.25 L 0 -3.25 Z M 0 -3.890625 "/>
</g>
<g id="glyph-3-1">
<path d="M -1.28125 -0.921875 L -1.28125 -0.25 C -1.03125 -0.257812 -0.816406 -0.3125 -0.640625 -0.40625 C -0.460938 -0.5 -0.320312 -0.625 -0.21875 -0.78125 C -0.113281 -0.9375 -0.0351562 -1.117188 0.015625 -1.328125 C 0.0664062 -1.535156 0.09375 -1.75 0.09375 -1.96875 C 0.09375 -2.175781 0.0703125 -2.382812 0.03125 -2.59375 C -0.0078125 -2.800781 -0.078125 -2.988281 -0.171875 -3.15625 C -0.273438 -3.320312 -0.410156 -3.457031 -0.578125 -3.5625 C -0.742188 -3.664062 -0.945312 -3.71875 -1.1875 -3.71875 C -1.382812 -3.71875 -1.546875 -3.675781 -1.671875 -3.59375 C -1.804688 -3.519531 -1.914062 -3.421875 -2 -3.296875 C -2.09375 -3.171875 -2.164062 -3.023438 -2.21875 -2.859375 C -2.269531 -2.703125 -2.316406 -2.539062 -2.359375 -2.375 C -2.390625 -2.21875 -2.421875 -2.0625 -2.453125 -1.90625 C -2.492188 -1.75 -2.539062 -1.601562 -2.59375 -1.46875 C -2.644531 -1.34375 -2.707031 -1.238281 -2.78125 -1.15625 C -2.851562 -1.082031 -2.945312 -1.046875 -3.0625 -1.046875 C -3.164062 -1.046875 -3.25 -1.070312 -3.3125 -1.125 C -3.382812 -1.175781 -3.441406 -1.242188 -3.484375 -1.328125 C -3.523438 -1.410156 -3.550781 -1.503906 -3.5625 -1.609375 C -3.582031 -1.710938 -3.59375 -1.8125 -3.59375 -1.90625 C -3.59375 -2.019531 -3.578125 -2.128906 -3.546875 -2.234375 C -3.523438 -2.347656 -3.488281 -2.445312 -3.4375 -2.53125 C -3.382812 -2.625 -3.3125 -2.695312 -3.21875 -2.75 C -3.132812 -2.8125 -3.03125 -2.847656 -2.90625 -2.859375 L -2.90625 -3.53125 C -3.144531 -3.519531 -3.347656 -3.46875 -3.515625 -3.375 C -3.679688 -3.28125 -3.8125 -3.160156 -3.90625 -3.015625 C -4.007812 -2.867188 -4.082031 -2.695312 -4.125 -2.5 C -4.164062 -2.300781 -4.1875 -2.085938 -4.1875 -1.859375 C -4.1875 -1.679688 -4.160156 -1.5 -4.109375 -1.3125 C -4.066406 -1.132812 -4 -0.972656 -3.90625 -0.828125 C -3.8125 -0.679688 -3.691406 -0.5625 -3.546875 -0.46875 C -3.398438 -0.375 -3.222656 -0.328125 -3.015625 -0.328125 C -2.753906 -0.328125 -2.550781 -0.394531 -2.40625 -0.53125 C -2.257812 -0.664062 -2.144531 -0.832031 -2.0625 -1.03125 C -1.976562 -1.226562 -1.910156 -1.441406 -1.859375 -1.671875 C -1.816406 -1.898438 -1.769531 -2.113281 -1.71875 -2.3125 C -1.664062 -2.507812 -1.59375 -2.671875 -1.5 -2.796875 C -1.414062 -2.929688 -1.285156 -3 -1.109375 -3 C -0.984375 -3 -0.878906 -2.96875 -0.796875 -2.90625 C -0.710938 -2.84375 -0.648438 -2.757812 -0.609375 -2.65625 C -0.566406 -2.5625 -0.535156 -2.457031 -0.515625 -2.34375 C -0.503906 -2.226562 -0.5 -2.117188 -0.5 -2.015625 C -0.5 -1.878906 -0.507812 -1.742188 -0.53125 -1.609375 C -0.5625 -1.484375 -0.609375 -1.367188 -0.671875 -1.265625 C -0.734375 -1.160156 -0.8125 -1.078125 -0.90625 -1.015625 C -1.007812 -0.953125 -1.132812 -0.921875 -1.28125 -0.921875 Z M -1.28125 -0.921875 "/>
</g>
<g id="glyph-3-2">
<path d="M -0.015625 -4.125 C 0.0546875 -4.007812 0.09375 -3.847656 0.09375 -3.640625 C 0.09375 -3.472656 0.0429688 -3.335938 -0.046875 -3.234375 C -0.148438 -3.128906 -0.3125 -3.078125 -0.53125 -3.078125 C -0.3125 -2.890625 -0.148438 -2.671875 -0.046875 -2.421875 C 0.0429688 -2.179688 0.09375 -1.921875 0.09375 -1.640625 C 0.09375 -1.453125 0.0664062 -1.273438 0.015625 -1.109375 C -0.0234375 -0.941406 -0.0859375 -0.796875 -0.171875 -0.671875 C -0.265625 -0.554688 -0.382812 -0.460938 -0.53125 -0.390625 C -0.675781 -0.316406 -0.847656 -0.28125 -1.046875 -0.28125 C -1.285156 -0.28125 -1.476562 -0.316406 -1.625 -0.390625 C -1.769531 -0.472656 -1.890625 -0.578125 -1.984375 -0.703125 C -2.078125 -0.835938 -2.144531 -0.988281 -2.1875 -1.15625 C -2.238281 -1.320312 -2.28125 -1.492188 -2.3125 -1.671875 C -2.34375 -1.847656 -2.367188 -2.019531 -2.390625 -2.1875 C -2.410156 -2.351562 -2.4375 -2.5 -2.46875 -2.625 C -2.5 -2.757812 -2.546875 -2.863281 -2.609375 -2.9375 C -2.679688 -3.007812 -2.78125 -3.046875 -2.90625 -3.046875 C -3.050781 -3.046875 -3.171875 -3.015625 -3.265625 -2.953125 C -3.359375 -2.898438 -3.425781 -2.828125 -3.46875 -2.734375 C -3.519531 -2.648438 -3.550781 -2.554688 -3.5625 -2.453125 C -3.582031 -2.347656 -3.59375 -2.242188 -3.59375 -2.140625 C -3.59375 -1.847656 -3.535156 -1.609375 -3.421875 -1.421875 C -3.316406 -1.234375 -3.113281 -1.128906 -2.8125 -1.109375 L -2.8125 -0.4375 C -3.0625 -0.445312 -3.273438 -0.5 -3.453125 -0.59375 C -3.628906 -0.695312 -3.769531 -0.828125 -3.875 -0.984375 C -3.988281 -1.140625 -4.066406 -1.316406 -4.109375 -1.515625 C -4.160156 -1.722656 -4.1875 -1.941406 -4.1875 -2.171875 C -4.1875 -2.359375 -4.171875 -2.539062 -4.140625 -2.71875 C -4.117188 -2.90625 -4.066406 -3.070312 -3.984375 -3.21875 C -3.898438 -3.363281 -3.785156 -3.476562 -3.640625 -3.5625 C -3.492188 -3.65625 -3.300781 -3.703125 -3.0625 -3.703125 L -0.953125 -3.703125 C -0.796875 -3.703125 -0.679688 -3.710938 -0.609375 -3.734375 C -0.535156 -3.753906 -0.5 -3.816406 -0.5 -3.921875 C -0.5 -3.984375 -0.507812 -4.050781 -0.53125 -4.125 Z M -2.109375 -3.03125 C -2.046875 -2.945312 -2 -2.835938 -1.96875 -2.703125 C -1.9375 -2.566406 -1.910156 -2.421875 -1.890625 -2.265625 C -1.878906 -2.117188 -1.859375 -1.96875 -1.828125 -1.8125 C -1.804688 -1.664062 -1.769531 -1.53125 -1.71875 -1.40625 C -1.664062 -1.28125 -1.59375 -1.179688 -1.5 -1.109375 C -1.40625 -1.035156 -1.269531 -1 -1.09375 -1 C -0.988281 -1 -0.894531 -1.019531 -0.8125 -1.0625 C -0.738281 -1.101562 -0.675781 -1.160156 -0.625 -1.234375 C -0.582031 -1.304688 -0.550781 -1.390625 -0.53125 -1.484375 C -0.507812 -1.578125 -0.5 -1.675781 -0.5 -1.78125 C -0.5 -2.007812 -0.53125 -2.203125 -0.59375 -2.359375 C -0.65625 -2.515625 -0.726562 -2.640625 -0.8125 -2.734375 C -0.90625 -2.835938 -1.003906 -2.910156 -1.109375 -2.953125 C -1.222656 -3.003906 -1.328125 -3.03125 -1.421875 -3.03125 Z M -2.109375 -3.03125 "/>
</g>
<g id="glyph-3-3">
<path d="M -0.34375 -4.03125 L -4.09375 -4.03125 L -4.09375 -3.40625 L -3.5 -3.40625 L -3.5 -3.390625 C -3.726562 -3.265625 -3.898438 -3.09375 -4.015625 -2.875 C -4.128906 -2.664062 -4.1875 -2.429688 -4.1875 -2.171875 C -4.1875 -1.816406 -4.117188 -1.519531 -3.984375 -1.28125 C -3.847656 -1.039062 -3.675781 -0.84375 -3.46875 -0.6875 C -3.257812 -0.539062 -3.023438 -0.4375 -2.765625 -0.375 C -2.515625 -0.3125 -2.269531 -0.28125 -2.03125 -0.28125 C -1.75 -0.28125 -1.484375 -0.316406 -1.234375 -0.390625 C -0.984375 -0.472656 -0.765625 -0.585938 -0.578125 -0.734375 C -0.390625 -0.890625 -0.238281 -1.082031 -0.125 -1.3125 C -0.0078125 -1.539062 0.046875 -1.804688 0.046875 -2.109375 C 0.046875 -2.367188 -0.0078125 -2.613281 -0.125 -2.84375 C -0.25 -3.082031 -0.441406 -3.265625 -0.703125 -3.390625 L -0.703125 -3.40625 L -0.421875 -3.40625 C -0.203125 -3.40625 0 -3.378906 0.1875 -3.328125 C 0.382812 -3.285156 0.550781 -3.210938 0.6875 -3.109375 C 0.820312 -3.015625 0.925781 -2.890625 1 -2.734375 C 1.070312 -2.578125 1.109375 -2.390625 1.109375 -2.171875 C 1.109375 -2.066406 1.097656 -1.953125 1.078125 -1.828125 C 1.054688 -1.703125 1.019531 -1.585938 0.96875 -1.484375 C 0.914062 -1.390625 0.84375 -1.304688 0.75 -1.234375 C 0.664062 -1.160156 0.566406 -1.117188 0.453125 -1.109375 L 0.453125 -0.4375 C 0.671875 -0.445312 0.851562 -0.503906 1 -0.609375 C 1.15625 -0.722656 1.28125 -0.859375 1.375 -1.015625 C 1.476562 -1.171875 1.550781 -1.347656 1.59375 -1.546875 C 1.632812 -1.742188 1.65625 -1.941406 1.65625 -2.140625 C 1.65625 -2.785156 1.488281 -3.257812 1.15625 -3.5625 C 0.820312 -3.875 0.320312 -4.03125 -0.34375 -4.03125 Z M -0.546875 -2.15625 C -0.546875 -1.925781 -0.59375 -1.738281 -0.6875 -1.59375 C -0.78125 -1.445312 -0.898438 -1.328125 -1.046875 -1.234375 C -1.191406 -1.148438 -1.359375 -1.085938 -1.546875 -1.046875 C -1.734375 -1.015625 -1.921875 -1 -2.109375 -1 C -2.296875 -1 -2.476562 -1.019531 -2.65625 -1.0625 C -2.84375 -1.101562 -3.003906 -1.171875 -3.140625 -1.265625 C -3.273438 -1.367188 -3.382812 -1.492188 -3.46875 -1.640625 C -3.550781 -1.796875 -3.59375 -1.984375 -3.59375 -2.203125 C -3.59375 -2.410156 -3.550781 -2.585938 -3.46875 -2.734375 C -3.382812 -2.890625 -3.269531 -3.007812 -3.125 -3.09375 C -2.988281 -3.1875 -2.832031 -3.253906 -2.65625 -3.296875 C -2.476562 -3.347656 -2.300781 -3.375 -2.125 -3.375 C -1.9375 -3.375 -1.742188 -3.347656 -1.546875 -3.296875 C -1.359375 -3.253906 -1.191406 -3.1875 -1.046875 -3.09375 C -0.898438 -3 -0.78125 -2.875 -0.6875 -2.71875 C -0.59375 -2.5625 -0.546875 -2.375 -0.546875 -2.15625 Z M -0.546875 -2.15625 "/>
</g>
<g id="glyph-3-4">
<path d="M -2.4375 -3.34375 L -2.4375 -1 C -2.59375 -1.007812 -2.738281 -1.039062 -2.875 -1.09375 C -3.019531 -1.15625 -3.144531 -1.234375 -3.25 -1.328125 C -3.351562 -1.429688 -3.4375 -1.550781 -3.5 -1.6875 C -3.5625 -1.832031 -3.59375 -1.992188 -3.59375 -2.171875 C -3.59375 -2.335938 -3.5625 -2.488281 -3.5 -2.625 C -3.4375 -2.769531 -3.351562 -2.890625 -3.25 -2.984375 C -3.144531 -3.085938 -3.019531 -3.171875 -2.875 -3.234375 C -2.738281 -3.296875 -2.59375 -3.332031 -2.4375 -3.34375 Z M -1.296875 -4 L -1.296875 -3.328125 C -1.023438 -3.265625 -0.820312 -3.144531 -0.6875 -2.96875 C -0.5625 -2.789062 -0.5 -2.554688 -0.5 -2.265625 C -0.5 -2.046875 -0.535156 -1.851562 -0.609375 -1.6875 C -0.679688 -1.53125 -0.78125 -1.394531 -0.90625 -1.28125 C -1.03125 -1.175781 -1.171875 -1.097656 -1.328125 -1.046875 C -1.492188 -1.003906 -1.664062 -0.988281 -1.84375 -1 L -1.84375 -4.0625 C -2.09375 -4.070312 -2.351562 -4.046875 -2.625 -3.984375 C -2.894531 -3.929688 -3.144531 -3.832031 -3.375 -3.6875 C -3.613281 -3.539062 -3.804688 -3.347656 -3.953125 -3.109375 C -4.109375 -2.867188 -4.1875 -2.566406 -4.1875 -2.203125 C -4.1875 -1.921875 -4.128906 -1.660156 -4.015625 -1.421875 C -3.910156 -1.191406 -3.765625 -0.988281 -3.578125 -0.8125 C -3.390625 -0.644531 -3.164062 -0.515625 -2.90625 -0.421875 C -2.644531 -0.328125 -2.363281 -0.28125 -2.0625 -0.28125 C -1.75 -0.289062 -1.457031 -0.335938 -1.1875 -0.421875 C -0.925781 -0.503906 -0.703125 -0.625 -0.515625 -0.78125 C -0.328125 -0.945312 -0.175781 -1.148438 -0.0625 -1.390625 C 0.0390625 -1.628906 0.09375 -1.914062 0.09375 -2.25 C 0.09375 -2.707031 -0.0195312 -3.085938 -0.25 -3.390625 C -0.488281 -3.703125 -0.835938 -3.90625 -1.296875 -4 Z M -1.296875 -4 "/>
</g>
<g id="glyph-3-5">
<path d="M 0 -2.34375 L -4.09375 -3.84375 L -4.09375 -3.140625 L -0.6875 -2.03125 L -0.6875 -2.015625 L -4.09375 -0.859375 L -4.09375 -0.109375 L 0 -1.625 Z M 0 -2.34375 "/>
</g>
<g id="glyph-3-6">
<path d="M -2.046875 -1 C -2.285156 -1 -2.5 -1.03125 -2.6875 -1.09375 C -2.882812 -1.15625 -3.050781 -1.242188 -3.1875 -1.359375 C -3.320312 -1.484375 -3.421875 -1.625 -3.484375 -1.78125 C -3.554688 -1.9375 -3.59375 -2.097656 -3.59375 -2.265625 C -3.59375 -2.441406 -3.554688 -2.609375 -3.484375 -2.765625 C -3.421875 -2.921875 -3.320312 -3.054688 -3.1875 -3.171875 C -3.050781 -3.285156 -2.882812 -3.375 -2.6875 -3.4375 C -2.5 -3.507812 -2.285156 -3.546875 -2.046875 -3.546875 C -1.796875 -3.546875 -1.570312 -3.507812 -1.375 -3.4375 C -1.1875 -3.375 -1.023438 -3.285156 -0.890625 -3.171875 C -0.765625 -3.054688 -0.664062 -2.921875 -0.59375 -2.765625 C -0.53125 -2.609375 -0.5 -2.441406 -0.5 -2.265625 C -0.5 -2.097656 -0.53125 -1.9375 -0.59375 -1.78125 C -0.664062 -1.625 -0.765625 -1.484375 -0.890625 -1.359375 C -1.023438 -1.242188 -1.1875 -1.15625 -1.375 -1.09375 C -1.570312 -1.03125 -1.796875 -1 -2.046875 -1 Z M -2.046875 -0.28125 C -1.742188 -0.28125 -1.460938 -0.320312 -1.203125 -0.40625 C -0.941406 -0.488281 -0.710938 -0.613281 -0.515625 -0.78125 C -0.328125 -0.957031 -0.175781 -1.164062 -0.0625 -1.40625 C 0.0390625 -1.65625 0.09375 -1.941406 0.09375 -2.265625 C 0.09375 -2.597656 0.0390625 -2.882812 -0.0625 -3.125 C -0.175781 -3.375 -0.328125 -3.582031 -0.515625 -3.75 C -0.710938 -3.914062 -0.941406 -4.039062 -1.203125 -4.125 C -1.460938 -4.207031 -1.742188 -4.25 -2.046875 -4.25 C -2.335938 -4.25 -2.613281 -4.207031 -2.875 -4.125 C -3.132812 -4.039062 -3.359375 -3.914062 -3.546875 -3.75 C -3.742188 -3.582031 -3.898438 -3.375 -4.015625 -3.125 C -4.128906 -2.882812 -4.1875 -2.597656 -4.1875 -2.265625 C -4.1875 -1.941406 -4.128906 -1.65625 -4.015625 -1.40625 C -3.898438 -1.164062 -3.742188 -0.957031 -3.546875 -0.78125 C -3.359375 -0.613281 -3.132812 -0.488281 -2.875 -0.40625 C -2.613281 -0.320312 -2.335938 -0.28125 -2.046875 -0.28125 Z M -2.046875 -0.28125 "/>
</g>
<g id="glyph-3-7">
<path d="M -3.5 -3 L -3.5 -1.453125 L 0 -1.453125 L 0 -0.78125 L -3.5 -0.78125 L -3.5 -0.09375 L -4.09375 -0.09375 L -4.09375 -0.78125 L -4.703125 -0.78125 C -5.023438 -0.78125 -5.269531 -0.875 -5.4375 -1.0625 C -5.613281 -1.257812 -5.703125 -1.539062 -5.703125 -1.90625 C -5.703125 -1.976562 -5.695312 -2.050781 -5.6875 -2.125 C -5.675781 -2.207031 -5.660156 -2.28125 -5.640625 -2.34375 L -5.0625 -2.34375 C -5.082031 -2.289062 -5.09375 -2.226562 -5.09375 -2.15625 C -5.101562 -2.09375 -5.109375 -2.03125 -5.109375 -1.96875 C -5.109375 -1.800781 -5.078125 -1.671875 -5.015625 -1.578125 C -4.953125 -1.492188 -4.832031 -1.453125 -4.65625 -1.453125 L -4.09375 -1.453125 L -4.09375 -3 L -4.703125 -3 C -5.023438 -3 -5.269531 -3.09375 -5.4375 -3.28125 C -5.613281 -3.476562 -5.703125 -3.765625 -5.703125 -4.140625 C -5.703125 -4.203125 -5.695312 -4.269531 -5.6875 -4.34375 C -5.675781 -4.425781 -5.660156 -4.5 -5.640625 -4.5625 L -5.0625 -4.5625 C -5.082031 -4.507812 -5.09375 -4.445312 -5.09375 -4.375 C -5.101562 -4.3125 -5.109375 -4.25 -5.109375 -4.1875 C -5.109375 -4.019531 -5.078125 -3.890625 -5.015625 -3.796875 C -4.953125 -3.710938 -4.832031 -3.671875 -4.65625 -3.671875 L -4.09375 -3.671875 L -4.09375 -4.46875 L -3.5 -4.46875 L -3.5 -3.671875 L 0 -3.671875 L 0 -3 Z M -3.5 -3 "/>
</g>
<g id="glyph-3-8">
<path d="M 1.5625 -1.609375 L 1.5625 -2.125 C 0.945312 -1.75 0.339844 -1.476562 -0.25 -1.3125 C -0.84375 -1.15625 -1.472656 -1.078125 -2.140625 -1.078125 C -2.785156 -1.078125 -3.398438 -1.15625 -3.984375 -1.3125 C -4.578125 -1.476562 -5.175781 -1.75 -5.78125 -2.125 L -5.78125 -1.609375 C -5.238281 -1.203125 -4.648438 -0.894531 -4.015625 -0.6875 C -3.378906 -0.476562 -2.753906 -0.375 -2.140625 -0.375 C -1.785156 -0.375 -1.453125 -0.398438 -1.140625 -0.453125 C -0.828125 -0.515625 -0.519531 -0.597656 -0.21875 -0.703125 C 0.0820312 -0.816406 0.378906 -0.945312 0.671875 -1.09375 C 0.960938 -1.25 1.257812 -1.421875 1.5625 -1.609375 Z M 1.5625 -1.609375 "/>
</g>
<g id="glyph-3-9">
<path d="M -4.015625 -1.328125 C -4.140625 -1.328125 -4.265625 -1.332031 -4.390625 -1.34375 C -4.523438 -1.363281 -4.648438 -1.394531 -4.765625 -1.4375 C -4.878906 -1.488281 -4.972656 -1.554688 -5.046875 -1.640625 C -5.128906 -1.734375 -5.171875 -1.859375 -5.171875 -2.015625 C -5.171875 -2.160156 -5.128906 -2.273438 -5.046875 -2.359375 C -4.972656 -2.453125 -4.878906 -2.519531 -4.765625 -2.5625 C -4.648438 -2.613281 -4.523438 -2.644531 -4.390625 -2.65625 C -4.265625 -2.675781 -4.144531 -2.6875 -4.03125 -2.6875 C -3.90625 -2.6875 -3.773438 -2.675781 -3.640625 -2.65625 C -3.503906 -2.632812 -3.378906 -2.597656 -3.265625 -2.546875 C -3.148438 -2.503906 -3.054688 -2.4375 -2.984375 -2.34375 C -2.910156 -2.257812 -2.875 -2.140625 -2.875 -1.984375 C -2.875 -1.835938 -2.910156 -1.71875 -2.984375 -1.625 C -3.054688 -1.539062 -3.148438 -1.472656 -3.265625 -1.421875 C -3.378906 -1.378906 -3.503906 -1.351562 -3.640625 -1.34375 C -3.773438 -1.332031 -3.898438 -1.328125 -4.015625 -1.328125 Z M -4 -0.734375 C -3.78125 -0.734375 -3.578125 -0.753906 -3.390625 -0.796875 C -3.203125 -0.835938 -3.035156 -0.90625 -2.890625 -1 C -2.753906 -1.101562 -2.644531 -1.238281 -2.5625 -1.40625 C -2.476562 -1.570312 -2.4375 -1.773438 -2.4375 -2.015625 C -2.4375 -2.242188 -2.476562 -2.4375 -2.5625 -2.59375 C -2.65625 -2.75 -2.773438 -2.878906 -2.921875 -2.984375 C -3.066406 -3.085938 -3.234375 -3.160156 -3.421875 -3.203125 C -3.617188 -3.242188 -3.820312 -3.265625 -4.03125 -3.265625 C -4.238281 -3.265625 -4.4375 -3.242188 -4.625 -3.203125 C -4.820312 -3.171875 -4.992188 -3.101562 -5.140625 -3 C -5.285156 -2.90625 -5.398438 -2.773438 -5.484375 -2.609375 C -5.566406 -2.453125 -5.609375 -2.253906 -5.609375 -2.015625 C -5.609375 -1.765625 -5.5625 -1.554688 -5.46875 -1.390625 C -5.382812 -1.234375 -5.269531 -1.101562 -5.125 -1 C -4.976562 -0.90625 -4.804688 -0.835938 -4.609375 -0.796875 C -4.421875 -0.753906 -4.21875 -0.734375 -4 -0.734375 Z M -1.484375 -5.21875 C -1.609375 -5.21875 -1.738281 -5.222656 -1.875 -5.234375 C -2.007812 -5.253906 -2.128906 -5.289062 -2.234375 -5.34375 C -2.347656 -5.394531 -2.441406 -5.460938 -2.515625 -5.546875 C -2.597656 -5.640625 -2.640625 -5.757812 -2.640625 -5.90625 C -2.640625 -6.0625 -2.597656 -6.179688 -2.515625 -6.265625 C -2.441406 -6.359375 -2.347656 -6.425781 -2.234375 -6.46875 C -2.128906 -6.519531 -2.007812 -6.550781 -1.875 -6.5625 C -1.738281 -6.570312 -1.613281 -6.578125 -1.5 -6.578125 C -1.375 -6.578125 -1.242188 -6.566406 -1.109375 -6.546875 C -0.972656 -6.535156 -0.847656 -6.503906 -0.734375 -6.453125 C -0.617188 -6.410156 -0.523438 -6.34375 -0.453125 -6.25 C -0.378906 -6.164062 -0.34375 -6.046875 -0.34375 -5.890625 C -0.34375 -5.742188 -0.378906 -5.625 -0.453125 -5.53125 C -0.523438 -5.445312 -0.617188 -5.378906 -0.734375 -5.328125 C -0.847656 -5.285156 -0.972656 -5.253906 -1.109375 -5.234375 C -1.242188 -5.222656 -1.367188 -5.21875 -1.484375 -5.21875 Z M -1.46875 -4.640625 C -1.25 -4.640625 -1.046875 -4.660156 -0.859375 -4.703125 C -0.671875 -4.742188 -0.503906 -4.8125 -0.359375 -4.90625 C -0.222656 -5.007812 -0.113281 -5.144531 -0.03125 -5.3125 C 0.0507812 -5.476562 0.09375 -5.675781 0.09375 -5.90625 C 0.09375 -6.144531 0.0507812 -6.34375 -0.03125 -6.5 C -0.125 -6.65625 -0.242188 -6.785156 -0.390625 -6.890625 C -0.535156 -6.992188 -0.703125 -7.066406 -0.890625 -7.109375 C -1.085938 -7.148438 -1.289062 -7.171875 -1.5 -7.171875 C -1.707031 -7.171875 -1.90625 -7.148438 -2.09375 -7.109375 C -2.289062 -7.078125 -2.460938 -7.007812 -2.609375 -6.90625 C -2.753906 -6.8125 -2.867188 -6.679688 -2.953125 -6.515625 C -3.035156 -6.359375 -3.078125 -6.15625 -3.078125 -5.90625 C -3.078125 -5.664062 -3.03125 -5.460938 -2.9375 -5.296875 C -2.851562 -5.140625 -2.738281 -5.007812 -2.59375 -4.90625 C -2.445312 -4.8125 -2.273438 -4.742188 -2.078125 -4.703125 C -1.890625 -4.660156 -1.6875 -4.640625 -1.46875 -4.640625 Z M -5.703125 -5.734375 L 0.171875 -1.484375 L 0.171875 -2.171875 L -5.703125 -6.40625 Z M -5.703125 -5.734375 "/>
</g>
<g id="glyph-3-10">
<path d="M 1.5625 0.078125 L 1.5625 -0.4375 C 1.019531 -0.84375 0.433594 -1.148438 -0.1875 -1.359375 C -0.820312 -1.566406 -1.453125 -1.671875 -2.078125 -1.671875 C -2.421875 -1.671875 -2.75 -1.640625 -3.0625 -1.578125 C -3.382812 -1.523438 -3.695312 -1.441406 -4 -1.328125 C -4.300781 -1.222656 -4.597656 -1.09375 -4.890625 -0.9375 C -5.191406 -0.789062 -5.488281 -0.625 -5.78125 -0.4375 L -5.78125 0.078125 C -5.175781 -0.296875 -4.570312 -0.5625 -3.96875 -0.71875 C -3.375 -0.882812 -2.742188 -0.96875 -2.078125 -0.96875 C -1.429688 -0.96875 -0.8125 -0.882812 -0.21875 -0.71875 C 0.371094 -0.5625 0.96875 -0.296875 1.5625 0.078125 Z M 1.5625 0.078125 "/>
</g>
</g>
<clipPath id="clip-0">
<path clip-rule="nonzero" d="M 44.464844 8.578125 L 366.464844 8.578125 L 366.464844 66 L 44.464844 66 Z M 44.464844 8.578125 "/>
</clipPath>
<clipPath id="clip-1">
<path clip-rule="nonzero" d="M 44.464844 30 L 366.464844 30 L 366.464844 100 L 44.464844 100 Z M 44.464844 30 "/>
</clipPath>
<clipPath id="clip-2">
<path clip-rule="nonzero" d="M 44.464844 65 L 366.464844 65 L 366.464844 104.980469 L 44.464844 104.980469 Z M 44.464844 65 "/>
</clipPath>
</defs>
<path fill="none" stroke-width="0.3985" stroke-linecap="butt" stroke-linejoin="miter" stroke="rgb(89.99939%, 89.99939%, 89.99939%)" stroke-opacity="1" stroke-miterlimit="10" d="M 0.000746979 -0.00181324 L 0.000746979 96.902232 M 60.811677 -0.00181324 L 60.811677 96.902232 M 121.638314 -0.00181324 L 121.638314 96.902232 M 182.457098 -0.00181324 L 182.457098 96.902232 M 243.271955 -0.00181324 L 243.271955 96.902232 M 304.090739 -0.00181324 L 304.090739 96.902232 " transform="matrix(0.994823, 0, 0, -0.994823, 44.464101, 104.978665)"/>
<path fill="none" stroke-width="0.3985" stroke-linecap="butt" stroke-linejoin="miter" stroke="rgb(89.99939%, 89.99939%, 89.99939%)" stroke-opacity="1" stroke-miterlimit="10" d="M 0.000746979 13.093328 L 323.676515 13.093328 M 0.000746979 39.283611 L 323.676515 39.283611 M 0.000746979 65.473893 L 323.676515 65.473893 M 0.000746979 91.664176 L 323.676515 91.664176 " transform="matrix(0.994823, 0, 0, -0.994823, 44.464101, 104.978665)"/>
<path fill="none" stroke-width="0.19925" stroke-linecap="butt" stroke-linejoin="miter" stroke="rgb(50%, 50%, 50%)" stroke-opacity="1" stroke-miterlimit="10" d="M 0.000746979 -0.00181324 L 0.000746979 4.250672 M 60.811677 -0.00181324 L 60.811677 4.250672 M 121.638314 -0.00181324 L 121.638314 4.250672 M 182.457098 -0.00181324 L 182.457098 4.250672 M 243.271955 -0.00181324 L 243.271955 4.250672 M 304.090739 -0.00181324 L 304.090739 4.250672 M 0.000746979 96.902232 L 0.000746979 92.649747 M 60.811677 96.902232 L 60.811677 92.649747 M 121.638314 96.902232 L 121.638314 92.649747 M 182.457098 96.902232 L 182.457098 92.649747 M 243.271955 96.902232 L 243.271955 92.649747 M 304.090739 96.902232 L 304.090739 92.649747 " transform="matrix(0.994823, 0, 0, -0.994823, 44.464101, 104.978665)"/>
<path fill="none" stroke-width="0.19925" stroke-linecap="butt" stroke-linejoin="miter" stroke="rgb(50%, 50%, 50%)" stroke-opacity="1" stroke-miterlimit="10" d="M 0.000746979 13.093328 L 4.229673 13.093328 M 0.000746979 39.283611 L 4.229673 39.283611 M 0.000746979 65.473893 L 4.229673 65.473893 M 0.000746979 91.664176 L 4.229673 91.664176 M 323.676515 13.093328 L 319.447589 13.093328 M 323.676515 39.283611 L 319.447589 39.283611 M 323.676515 65.473893 L 319.447589 65.473893 M 323.676515 91.664176 L 319.447589 91.664176 " transform="matrix(0.994823, 0, 0, -0.994823, 44.464101, 104.978665)"/>
<path fill="none" stroke-width="0.3985" stroke-linecap="butt" stroke-linejoin="miter" stroke="rgb(0%, 0%, 0%)" stroke-opacity="1" stroke-miterlimit="10" d="M 0.000746979 -0.00181324 L 0.000746979 96.902232 L 323.676515 96.902232 L 323.676515 -0.00181324 Z M 0.000746979 -0.00181324 " transform="matrix(0.994823, 0, 0, -0.994823, 44.464101, 104.978665)"/>
<g fill="rgb(0%, 0%, 0%)" fill-opacity="1">
<use xlink:href="#glyph-0-0" x="42.259574" y="114.102184"/>
</g>
<g fill="rgb(0%, 0%, 0%)" fill-opacity="1">
<use xlink:href="#glyph-0-1" x="102.755736" y="114.102184"/>
</g>
<g fill="rgb(0%, 0%, 0%)" fill-opacity="1">
<use xlink:href="#glyph-0-2" x="163.267817" y="114.102184"/>
</g>
<g fill="rgb(0%, 0%, 0%)" fill-opacity="1">
<use xlink:href="#glyph-0-3" x="223.772933" y="114.102184"/>
</g>
<g fill="rgb(0%, 0%, 0%)" fill-opacity="1">
<use xlink:href="#glyph-0-0" x="282.067553" y="114.102184"/>
</g>
<g fill="rgb(0%, 0%, 0%)" fill-opacity="1">
<use xlink:href="#glyph-0-4" x="286.475302" y="114.102184"/>
</g>
<g fill="rgb(0%, 0%, 0%)" fill-opacity="1">
<use xlink:href="#glyph-0-5" x="342.57068" y="114.102184"/>
</g>
<g fill="rgb(0%, 0%, 0%)" fill-opacity="1">
<use xlink:href="#glyph-0-1" x="346.978428" y="114.102184"/>
</g>
<g fill="rgb(0%, 0%, 0%)" fill-opacity="1">
<use xlink:href="#glyph-1-0" x="25.985269" y="94.093315"/>
</g>
<g fill="rgb(0%, 0%, 0%)" fill-opacity="1">
<use xlink:href="#glyph-2-0" x="32.537171" y="94.093315"/>
<use xlink:href="#glyph-2-1" x="36.747383" y="94.093315"/>
</g>
<g fill="rgb(0%, 0%, 0%)" fill-opacity="1">
<use xlink:href="#glyph-1-0" x="25.985269" y="68.038909"/>
</g>
<g fill="rgb(0%, 0%, 0%)" fill-opacity="1">
<use xlink:href="#glyph-2-2" x="32.537171" y="68.038909"/>
<use xlink:href="#glyph-2-1" x="36.747383" y="68.038909"/>
</g>
<g fill="rgb(0%, 0%, 0%)" fill-opacity="1">
<use xlink:href="#glyph-1-0" x="25.985269" y="41.984502"/>
</g>
<g fill="rgb(0%, 0%, 0%)" fill-opacity="1">
<use xlink:href="#glyph-2-3" x="32.537171" y="41.984502"/>
<use xlink:href="#glyph-2-1" x="36.747383" y="41.984502"/>
</g>
<g fill="rgb(0%, 0%, 0%)" fill-opacity="1">
<use xlink:href="#glyph-2-1" x="36.750245" y="16.342947"/>
</g>
<g clip-path="url(#clip-0)">
<path fill="none" stroke-width="0.79701" stroke-linecap="butt" stroke-linejoin="miter" stroke="rgb(18.399048%, 42.698669%, 70.999146%)" stroke-opacity="1" stroke-miterlimit="10" d="M 0.000746979 90.615779 L 60.811677 84.333253 L 96.394337 80.665828 L 121.638314 77.783719 L 157.213121 73.330978 L 182.457098 69.926634 L 202.035021 67.307606 L 218.031905 64.951658 L 243.271955 61.284233 L 262.849878 58.665205 L 282.435655 56.046177 L 298.432538 53.949384 L 323.676515 51.334282 " transform="matrix(0.994823, 0, 0, -0.994823, 44.464101, 104.978665)"/>
</g>
<g clip-path="url(#clip-1)">
<path fill="none" stroke-width="0.79701" stroke-linecap="butt" stroke-linejoin="miter" stroke="rgb(78.399658%, 33.299255%, 23.899841%)" stroke-opacity="1" stroke-miterlimit="10" d="M 0.000746979 63.117946 L 60.811677 51.856517 L 96.394337 46.61846 L 121.638314 42.951036 L 157.213121 37.97606 L 182.457098 34.571716 L 202.035021 31.952687 L 218.031905 29.592813 L 243.271955 26.188469 L 262.849878 23.832522 L 282.435655 21.476574 L 298.432538 19.642862 L 323.676515 17.023834 " transform="matrix(0.994823, 0, 0, -0.994823, 44.464101, 104.978665)"/>
</g>
<g clip-path="url(#clip-2)">
<path fill="none" stroke-width="0.79701" stroke-linecap="butt" stroke-linejoin="miter" stroke="rgb(29.798889%, 60.398865%, 35.699463%)" stroke-opacity="1" stroke-dasharray="2.98883 2.98883" stroke-miterlimit="10" d="M 0.000746979 28.285263 L 60.811677 21.998809 L 96.394337 19.379781 L 121.638314 17.80915 L 157.213121 15.712356 L 182.457098 14.404805 L 202.035021 13.61949 L 218.031905 12.834174 L 243.271955 11.785777 L 262.849878 11.000461 L 282.435655 10.4743 L 298.432538 9.952065 L 323.676515 9.166749 " transform="matrix(0.994823, 0, 0, -0.994823, 44.464101, 104.978665)"/>
</g>
<path fill="none" stroke-width="0.3985" stroke-linecap="butt" stroke-linejoin="miter" stroke="rgb(18.399048%, 42.698669%, 70.999146%)" stroke-opacity="1" stroke-miterlimit="10" d="M 162.078152 73.330978 C 162.078152 74.43042 161.186819 75.32568 160.08345 75.32568 C 158.984008 75.32568 158.092675 74.43042 158.092675 73.330978 C 158.092675 72.231536 158.984008 71.340202 160.08345 71.340202 C 161.186819 71.340202 162.078152 72.231536 162.078152 73.330978 Z M 162.078152 73.330978 " transform="matrix(0.994823, 0, 0, -0.994823, 44.464101, 104.978665)"/>
<path fill="none" stroke-width="0.3985" stroke-linecap="butt" stroke-linejoin="miter" stroke="rgb(78.399658%, 33.299255%, 23.899841%)" stroke-opacity="1" stroke-miterlimit="10" d="M 162.078152 26.45155 C 162.078152 27.550992 161.186819 28.446252 160.08345 28.446252 C 158.984008 28.446252 158.092675 27.550992 158.092675 26.45155 C 158.092675 25.352108 158.984008 24.460775 160.08345 24.460775 C 161.186819 24.460775 162.078152 25.352108 162.078152 26.45155 Z M 162.078152 26.45155 " transform="matrix(0.994823, 0, 0, -0.994823, 44.464101, 104.978665)"/>
<path fill="none" stroke-width="0.3985" stroke-linecap="butt" stroke-linejoin="miter" stroke="rgb(29.798889%, 60.398865%, 35.699463%)" stroke-opacity="1" stroke-miterlimit="10" d="M 162.078152 7.855272 C 162.078152 8.95864 161.186819 9.849974 160.08345 9.849974 C 158.984008 9.849974 158.092675 8.95864 158.092675 7.855272 C 158.092675 6.755829 158.984008 5.864496 160.08345 5.864496 C 161.186819 5.864496 162.078152 6.755829 162.078152 7.855272 Z M 162.078152 7.855272 " transform="matrix(0.994823, 0, 0, -0.994823, 44.464101, 104.978665)"/>
<g fill="rgb(0%, 0%, 0%)" fill-opacity="1">
<use xlink:href="#glyph-0-6" x="153.326553" y="126.654857"/>
</g>
<g fill="rgb(0%, 0%, 0%)" fill-opacity="1">
<use xlink:href="#glyph-0-7" x="157.734302" y="126.654857"/>
</g>
<g fill="rgb(0%, 0%, 0%)" fill-opacity="1">
<use xlink:href="#glyph-0-8" x="161.691796" y="126.654857"/>
</g>
<g fill="rgb(0%, 0%, 0%)" fill-opacity="1">
<use xlink:href="#glyph-0-9" x="165.94946" y="126.654857"/>
</g>
<g fill="rgb(0%, 0%, 0%)" fill-opacity="1">
<use xlink:href="#glyph-0-10" x="170.799563" y="126.654857"/>
</g>
<g fill="rgb(0%, 0%, 0%)" fill-opacity="1">
<use xlink:href="#glyph-0-8" x="177.56127" y="126.654857"/>
</g>
<g fill="rgb(0%, 0%, 0%)" fill-opacity="1">
<use xlink:href="#glyph-0-7" x="181.818934" y="126.654857"/>
</g>
<g fill="rgb(0%, 0%, 0%)" fill-opacity="1">
<use xlink:href="#glyph-0-7" x="185.784328" y="126.654857"/>
</g>
<g fill="rgb(0%, 0%, 0%)" fill-opacity="1">
<use xlink:href="#glyph-0-11" x="189.749721" y="126.654857"/>
</g>
<g fill="rgb(0%, 0%, 0%)" fill-opacity="1">
<use xlink:href="#glyph-0-12" x="194.007385" y="126.654857"/>
</g>
<g fill="rgb(0%, 0%, 0%)" fill-opacity="1">
<use xlink:href="#glyph-0-8" x="198.557319" y="126.654857"/>
</g>
<g fill="rgb(0%, 0%, 0%)" fill-opacity="1">
<use xlink:href="#glyph-0-7" x="202.814983" y="126.654857"/>
</g>
<g fill="rgb(0%, 0%, 0%)" fill-opacity="1">
<use xlink:href="#glyph-0-13" x="208.984251" y="126.654857"/>
</g>
<g fill="rgb(0%, 0%, 0%)" fill-opacity="1">
<use xlink:href="#glyph-0-14" x="210.74577" y="126.654857"/>
</g>
<g fill="rgb(0%, 0%, 0%)" fill-opacity="1">
<use xlink:href="#glyph-0-15" x="217.357393" y="126.654857"/>
</g>
<g fill="rgb(0%, 0%, 0%)" fill-opacity="1">
<use xlink:href="#glyph-0-16" x="219.853537" y="126.654857"/>
</g>
<g fill="rgb(0%, 0%, 0%)" fill-opacity="1">
<use xlink:href="#glyph-0-8" x="224.261285" y="126.654857"/>
</g>
<g fill="rgb(0%, 0%, 0%)" fill-opacity="1">
<use xlink:href="#glyph-0-7" x="230.722823" y="126.654857"/>
</g>
<g fill="rgb(0%, 0%, 0%)" fill-opacity="1">
<use xlink:href="#glyph-0-8" x="234.688217" y="126.654857"/>
</g>
<g fill="rgb(0%, 0%, 0%)" fill-opacity="1">
<use xlink:href="#glyph-0-7" x="238.945881" y="126.654857"/>
</g>
<g fill="rgb(0%, 0%, 0%)" fill-opacity="1">
<use xlink:href="#glyph-0-7" x="242.911274" y="126.654857"/>
</g>
<g fill="rgb(0%, 0%, 0%)" fill-opacity="1">
<use xlink:href="#glyph-0-13" x="246.876668" y="126.654857"/>
</g>
<g fill="rgb(0%, 0%, 0%)" fill-opacity="1">
<use xlink:href="#glyph-0-17" x="248.638188" y="126.654857"/>
</g>
<g fill="rgb(0%, 0%, 0%)" fill-opacity="1">
<use xlink:href="#glyph-0-14" x="253.188121" y="126.654857"/>
</g>
<g fill="rgb(0%, 0%, 0%)" fill-opacity="1">
<use xlink:href="#glyph-3-0" x="17.523307" y="85.349818"/>
</g>
<g fill="rgb(0%, 0%, 0%)" fill-opacity="1">
<use xlink:href="#glyph-3-1" x="17.523307" y="80.94207"/>
</g>
<g fill="rgb(0%, 0%, 0%)" fill-opacity="1">
<use xlink:href="#glyph-3-2" x="17.523307" y="76.984575"/>
</g>
<g fill="rgb(0%, 0%, 0%)" fill-opacity="1">
<use xlink:href="#glyph-3-3" x="17.523307" y="72.726912"/>
</g>
<g fill="rgb(0%, 0%, 0%)" fill-opacity="1">
<use xlink:href="#glyph-3-4" x="17.523307" y="68.169079"/>
</g>
<g fill="rgb(0%, 0%, 0%)" fill-opacity="1">
<use xlink:href="#glyph-3-5" x="17.523307" y="61.707541"/>
</g>
<g fill="rgb(0%, 0%, 0%)" fill-opacity="1">
<use xlink:href="#glyph-3-1" x="17.523307" y="57.742147"/>
</g>
<g fill="rgb(0%, 0%, 0%)" fill-opacity="1">
<use xlink:href="#glyph-3-6" x="17.523307" y="51.580778"/>
</g>
<g fill="rgb(0%, 0%, 0%)" fill-opacity="1">
<use xlink:href="#glyph-3-7" x="17.523307" y="47.022945"/>
</g>
<g fill="rgb(0%, 0%, 0%)" fill-opacity="1">
<use xlink:href="#glyph-3-8" x="17.523307" y="40.24544"/>
</g>
<g fill="rgb(0%, 0%, 0%)" fill-opacity="1">
<use xlink:href="#glyph-3-9" x="17.523307" y="38.19165"/>
</g>
<g fill="rgb(0%, 0%, 0%)" fill-opacity="1">
<use xlink:href="#glyph-3-10" x="17.523307" y="30.260863"/>
</g>
<path fill-rule="nonzero" fill="rgb(100%, 100%, 100%)" fill-opacity="0.8" d="M 54.320312 101.886719 L 120.582031 101.886719 L 120.582031 64.667969 L 54.320312 64.667969 Z M 54.320312 101.886719 "/>
<path fill="none" stroke-width="0.79701" stroke-linecap="butt" stroke-linejoin="miter" stroke="rgb(18.399048%, 42.698669%, 70.999146%)" stroke-opacity="1" stroke-miterlimit="10" d="M 0.000143803 0.00174486 L 17.010084 0.00174486 " transform="matrix(0.994823, 0, 0, -0.994823, 57.691263, 72.18533)"/>
<g fill="rgb(0%, 0%, 0%)" fill-opacity="1">
<use xlink:href="#glyph-0-0" x="84.851912" y="74.252571"/>
</g>
<g fill="rgb(0%, 0%, 0%)" fill-opacity="1">
<use xlink:href="#glyph-0-18" x="89.259661" y="74.252571"/>
</g>
<g fill="rgb(0%, 0%, 0%)" fill-opacity="1">
<use xlink:href="#glyph-0-7" x="92.340345" y="74.252571"/>
</g>
<g fill="rgb(0%, 0%, 0%)" fill-opacity="1">
<use xlink:href="#glyph-0-15" x="96.305739" y="74.252571"/>
</g>
<g fill="rgb(0%, 0%, 0%)" fill-opacity="1">
<use xlink:href="#glyph-0-8" x="98.801883" y="74.252571"/>
</g>
<g fill="rgb(0%, 0%, 0%)" fill-opacity="1">
<use xlink:href="#glyph-0-19" x="103.059547" y="74.252571"/>
</g>
<path fill="none" stroke-width="0.79701" stroke-linecap="butt" stroke-linejoin="miter" stroke="rgb(78.399658%, 33.299255%, 23.899841%)" stroke-opacity="1" stroke-miterlimit="10" d="M 0.000143803 -0.000106883 L 17.010084 -0.000106883 " transform="matrix(0.994823, 0, 0, -0.994823, 57.691263, 83.257706)"/>
<g fill="rgb(0%, 0%, 0%)" fill-opacity="1">
<use xlink:href="#glyph-0-1" x="82.870226" y="85.324948"/>
</g>
<g fill="rgb(0%, 0%, 0%)" fill-opacity="1">
<use xlink:href="#glyph-0-18" x="87.277974" y="85.324948"/>
</g>
<g fill="rgb(0%, 0%, 0%)" fill-opacity="1">
<use xlink:href="#glyph-0-7" x="90.358658" y="85.324948"/>
</g>
<g fill="rgb(0%, 0%, 0%)" fill-opacity="1">
<use xlink:href="#glyph-0-15" x="94.324052" y="85.324948"/>
</g>
<g fill="rgb(0%, 0%, 0%)" fill-opacity="1">
<use xlink:href="#glyph-0-8" x="96.820196" y="85.324948"/>
</g>
<g fill="rgb(0%, 0%, 0%)" fill-opacity="1">
<use xlink:href="#glyph-0-19" x="101.07786" y="85.324948"/>
</g>
<g fill="rgb(0%, 0%, 0%)" fill-opacity="1">
<use xlink:href="#glyph-0-7" x="105.777878" y="85.324948"/>
</g>
<path fill="none" stroke-width="0.79701" stroke-linecap="butt" stroke-linejoin="miter" stroke="rgb(29.798889%, 60.398865%, 35.699463%)" stroke-opacity="1" stroke-dasharray="2.98883 2.98883" stroke-miterlimit="10" d="M 0.000143803 -0.00159152 L 17.010084 -0.00159152 " transform="matrix(0.994823, 0, 0, -0.994823, 57.691263, 94.349979)"/>
<g fill="rgb(0%, 0%, 0%)" fill-opacity="1">
<use xlink:href="#glyph-0-11" x="76.990823" y="96.437117"/>
</g>
<g fill="rgb(0%, 0%, 0%)" fill-opacity="1">
<use xlink:href="#glyph-0-20" x="81.240588" y="96.437117"/>
</g>
<g fill="rgb(0%, 0%, 0%)" fill-opacity="1">
<use xlink:href="#glyph-0-20" x="83.002108" y="96.437117"/>
</g>
<g fill="rgb(0%, 0%, 0%)" fill-opacity="1">
<use xlink:href="#glyph-0-10" x="86.967501" y="96.437117"/>
</g>
<g fill="rgb(0%, 0%, 0%)" fill-opacity="1">
<use xlink:href="#glyph-0-8" x="93.729208" y="96.437117"/>
</g>
<g fill="rgb(0%, 0%, 0%)" fill-opacity="1">
<use xlink:href="#glyph-0-21" x="97.986872" y="96.437117"/>
</g>
<g fill="rgb(0%, 0%, 0%)" fill-opacity="1">
<use xlink:href="#glyph-0-13" x="102.69479" y="96.437117"/>
<use xlink:href="#glyph-0-6" x="104.44841" y="96.437117"/>
</g>
<g fill="rgb(0%, 0%, 0%)" fill-opacity="1">
<use xlink:href="#glyph-0-10" x="108.864058" y="96.437117"/>
</g>
</svg>
